<?xml version="1.0" encoding="UTF-8"?>
<!DOCTYPE svg PUBLIC "-//W3C//DTD SVG 1.1//EN" "http://www.w3.org/Graphics/SVG/1.1/DTD/svg11.dtd">
<!-- Creator: CorelDRAW 2019 (64-Bit) -->
<svg xmlns="http://www.w3.org/2000/svg" xml:space="preserve" width="4.40974in" height="2.83542in" version="1.1" style="shape-rendering:geometricPrecision; text-rendering:geometricPrecision; image-rendering:optimizeQuality; fill-rule:evenodd; clip-rule:evenodd"
viewBox="0 0 1065.45 685.08"
 xmlns:xlink="http://www.w3.org/1999/xlink"
 xmlns:xodm="http://www.corel.com/coreldraw/odm/2003">
 <defs>
  <style type="text/css">
   <![CDATA[
    .fil0 {fill:#E86317}
   ]]>
  </style>
 </defs>
 <g id="Layer_x0020_1">
  <metadata id="CorelCorpID_0Corel-Layer"/>
  <path class="fil0" d="M779.8 290.72c27.42,0 49.85,22.43 49.85,49.85 0,7.32 -1.6,14.29 -4.47,20.57 -1.72,3.78 -3.91,7.3 -6.48,10.51 -60.34,94.05 -165.83,156.37 -285.88,156.37 -120.33,0 -226.04,-62.62 -286.31,-157.05 -2.16,-2.79 -4.03,-5.82 -5.57,-9.03 -3.1,-6.48 -4.84,-13.73 -4.84,-21.36 0,-27.42 22.43,-49.85 49.85,-49.85 15.96,0 30.22,7.6 39.36,19.35 2.21,2.84 4.12,5.92 5.68,9.19 42.85,66.05 117.24,109.74 201.83,109.74 84.86,0 159.45,-43.97 202.23,-110.36 1.4,-2.83 3.05,-5.51 4.94,-8.01 9.12,-12.08 23.59,-19.92 39.8,-19.92zm33.06 394.36c51.02,0 93.83,-35.17 105.49,-82.59l2.5 -14.18 65.82 -373.29 20.41 -115.76 8.6 0 0.14 0c27.29,0 49.63,-22.33 49.63,-49.63 0,-24.35 -17.78,-44.75 -41,-48.87 -2.81,-0.5 -5.69,-0.76 -8.63,-0.76l-966.2 0c-2.87,0 -5.68,0.25 -8.42,0.72 -23.32,4.03 -41.2,24.48 -41.2,48.91 0,27.29 22.33,49.63 49.63,49.63l0.14 0 8.81 0 20.41 115.73 66.71 378.37 0.74 4.17c9.81,49.91 53.8,87.55 106.59,87.55l559.84 0zm-146.12 -403.26c35.21,0 63.76,-28.55 63.76,-63.76 0,-35.21 -28.55,-63.76 -63.76,-63.76 -35.21,0 -63.76,28.55 -63.76,63.76 0,35.21 28.55,63.76 63.76,63.76zm-268.04 0c35.21,0 63.76,-28.55 63.76,-63.76 0,-35.21 -28.55,-63.76 -63.76,-63.76 -35.21,0 -63.76,28.55 -63.76,63.76 0,35.21 28.55,63.76 63.76,63.76z"/>
 </g>
</svg>
