<?xml version="1.0" encoding="UTF-8"?>
<!DOCTYPE svg PUBLIC "-//W3C//DTD SVG 1.1//EN" "http://www.w3.org/Graphics/SVG/1.1/DTD/svg11.dtd">
<!-- Creator: CorelDRAW 2019 (64-Bit) -->
<svg xmlns="http://www.w3.org/2000/svg" xml:space="preserve" width="4.60098in" height="0.958709in" version="1.1" style="shape-rendering:geometricPrecision; text-rendering:geometricPrecision; image-rendering:optimizeQuality; fill-rule:evenodd; clip-rule:evenodd"
viewBox="0 0 420.3 87.58"
 xmlns:xlink="http://www.w3.org/1999/xlink"
 xmlns:xodm="http://www.corel.com/coreldraw/odm/2003">
 <defs>
  <style type="text/css">
   <![CDATA[
    .fil1 {fill:#E86317}
    .fil0 {fill:white;fill-rule:nonzero}
   ]]>
  </style>
 </defs>
 <g id="Layer_x0020_1">
  <metadata id="CorelCorpID_0Corel-Layer"/>
  <path class="fil0" d="M144.57 72.25c-0.54,0 -1.01,-0.2 -1.41,-0.6 -0.4,-0.4 -0.6,-0.87 -0.6,-1.41l0 -52.34c0,-0.59 0.19,-1.09 0.56,-1.49 0.38,-0.4 0.86,-0.6 1.45,-0.6l21.21 0c7.96,0 14.14,1.9 18.55,5.69 4.41,3.79 6.72,9.23 6.94,16.33 0.05,1.56 0.08,3.63 0.08,6.21 0,2.58 -0.03,4.62 -0.08,6.13 -0.54,14.73 -8.9,22.1 -25.08,22.1l-21.61 0zm21.21 -12.1c3.39,0 5.89,-0.81 7.5,-2.42 1.61,-1.61 2.47,-4.19 2.58,-7.74 0.11,-1.56 0.16,-3.58 0.16,-6.05 0,-2.47 -0.05,-4.46 -0.16,-5.97 -0.11,-3.44 -1.04,-5.98 -2.78,-7.62 -1.75,-1.64 -4.31,-2.46 -7.7,-2.46l-7.66 0 0 32.26 8.06 0z"/>
  <path class="fil0" d="M199.42 72.25c-0.54,0 -1.01,-0.2 -1.41,-0.6 -0.4,-0.4 -0.6,-0.87 -0.6,-1.41l0 -37.82c0,-0.59 0.19,-1.09 0.56,-1.49 0.38,-0.4 0.86,-0.6 1.45,-0.6l9.84 0c0.59,0 1.09,0.2 1.49,0.6 0.4,0.4 0.6,0.9 0.6,1.49l0 3.06c1.51,-1.67 3.27,-2.94 5.28,-3.83 2.02,-0.89 4.26,-1.33 6.73,-1.33l3.63 0c0.59,0 1.07,0.19 1.45,0.56 0.38,0.38 0.56,0.86 0.56,1.45l0 8.79c0,0.54 -0.19,1.01 -0.56,1.41 -0.38,0.4 -0.86,0.6 -1.45,0.6l-8.15 0c-2.15,0 -3.8,0.59 -4.96,1.77 -1.16,1.18 -1.73,2.85 -1.73,5l0 20.32c0,0.59 -0.2,1.08 -0.6,1.45 -0.4,0.38 -0.9,0.56 -1.49,0.56l-10.65 0z"/>
  <path class="fil0" d="M244.66 87.58c-0.48,0 -0.89,-0.16 -1.21,-0.48 -0.32,-0.32 -0.48,-0.73 -0.48,-1.21 0,-0.38 0.05,-0.73 0.16,-1.05l6.37 -15.16 -15.48 -36.61c-0.16,-0.43 -0.24,-0.73 -0.24,-0.89 0.11,-0.54 0.34,-0.98 0.69,-1.33 0.35,-0.35 0.77,-0.52 1.25,-0.52l9.6 0c1.13,0 1.91,0.56 2.34,1.69l8.95 22.9 9.19 -22.9c0.54,-1.13 1.34,-1.69 2.42,-1.69l9.52 0c0.48,0 0.9,0.17 1.25,0.52 0.35,0.35 0.52,0.74 0.52,1.17 0,0.38 -0.05,0.73 -0.16,1.05l-22.82 52.82c-0.54,1.13 -1.37,1.69 -2.5,1.69l-9.36 0z"/>
  <path class="fil0" d="M285.15 72.25c-0.54,0 -1.01,-0.2 -1.41,-0.6 -0.4,-0.4 -0.6,-0.87 -0.6,-1.41l0 -52.34c0,-0.59 0.19,-1.09 0.56,-1.49 0.38,-0.4 0.86,-0.6 1.45,-0.6l10.81 0c0.59,0 1.08,0.2 1.45,0.6 0.38,0.4 0.56,0.9 0.56,1.49l0 17.58 14.27 -18.06c0.59,-1.07 1.64,-1.61 3.15,-1.61l12.34 0c0.43,0 0.82,0.17 1.17,0.52 0.35,0.35 0.52,0.74 0.52,1.17 0,0.43 -0.11,0.75 -0.32,0.97l-18.79 24.35 20.32 26.77c0.22,0.22 0.32,0.54 0.32,0.97 0,0.43 -0.18,0.82 -0.52,1.17 -0.35,0.35 -0.77,0.52 -1.25,0.52l-12.66 0c-0.86,0 -1.56,-0.17 -2.1,-0.52 -0.54,-0.35 -0.91,-0.71 -1.13,-1.09l-15.32 -19.68 0 19.27c0,0.54 -0.19,1.01 -0.56,1.41 -0.38,0.4 -0.86,0.6 -1.45,0.6l-10.81 0z"/>
  <path class="fil0" d="M338.94 72.25c-0.59,0 -1.09,-0.19 -1.49,-0.56 -0.4,-0.38 -0.6,-0.86 -0.6,-1.45l0 -53.23c0,-0.59 0.2,-1.08 0.6,-1.45 0.4,-0.38 0.9,-0.56 1.49,-0.56l10.08 0c0.59,0 1.08,0.19 1.45,0.56 0.38,0.38 0.56,0.86 0.56,1.45l0 53.23c0,0.54 -0.19,1.01 -0.56,1.41 -0.38,0.4 -0.86,0.6 -1.45,0.6l-10.08 0z"/>
  <path class="fil0" d="M358.93 24.51c-0.59,0 -1.08,-0.2 -1.45,-0.6 -0.38,-0.4 -0.56,-0.9 -0.56,-1.49l0 -7.5c0,-0.59 0.2,-1.09 0.61,-1.49 0.4,-0.4 0.87,-0.6 1.41,-0.6l10.08 0c0.59,0 1.09,0.2 1.49,0.6 0.4,0.4 0.6,0.9 0.6,1.49l0 7.5c0,0.59 -0.2,1.09 -0.6,1.49 -0.4,0.4 -0.9,0.6 -1.49,0.6l-10.08 0zm0 47.74c-0.54,0 -1.01,-0.2 -1.41,-0.6 -0.4,-0.4 -0.61,-0.87 -0.61,-1.41l0 -37.9c0,-0.59 0.2,-1.07 0.61,-1.45 0.4,-0.38 0.87,-0.56 1.41,-0.56l10.08 0c0.59,0 1.09,0.19 1.49,0.56 0.4,0.38 0.6,0.86 0.6,1.45l0 37.9c0,0.59 -0.2,1.08 -0.6,1.45 -0.4,0.38 -0.9,0.56 -1.49,0.56l-10.08 0z"/>
  <path class="fil0" d="M379.01 72.25c-0.54,0 -1.01,-0.2 -1.41,-0.6 -0.4,-0.4 -0.6,-0.87 -0.6,-1.41l0 -37.9c0,-0.59 0.2,-1.07 0.6,-1.45 0.4,-0.38 0.87,-0.56 1.41,-0.56l9.92 0c0.59,0 1.08,0.19 1.45,0.56 0.38,0.38 0.56,0.86 0.56,1.45l0 3.06c1.45,-1.77 3.32,-3.2 5.6,-4.27 2.29,-1.07 4.91,-1.61 7.86,-1.61 3.06,0 5.79,0.7 8.19,2.1 2.39,1.4 4.27,3.47 5.65,6.21 1.37,2.74 2.06,6.05 2.06,9.92l0 22.5c0,0.54 -0.19,1.01 -0.56,1.41 -0.38,0.4 -0.86,0.6 -1.45,0.6l-10.73 0c-0.59,0 -1.09,-0.19 -1.49,-0.56 -0.4,-0.38 -0.6,-0.86 -0.6,-1.45l0 -22.02c0,-2.42 -0.58,-4.27 -1.73,-5.56 -1.16,-1.29 -2.84,-1.94 -5.04,-1.94 -2.15,0 -3.84,0.66 -5.08,1.98 -1.24,1.32 -1.86,3.16 -1.86,5.52l0 22.02c0,0.54 -0.19,1.01 -0.56,1.41 -0.38,0.4 -0.86,0.6 -1.45,0.6l-10.73 0z"/>
  <path class="fil1" d="M88.62 33.04c3.12,0 5.67,2.55 5.67,5.67 0,0.83 -0.18,1.62 -0.51,2.34 -0.2,0.43 -0.44,0.83 -0.74,1.19 -6.86,10.69 -18.85,17.77 -32.49,17.77 -13.68,0 -25.69,-7.12 -32.54,-17.85 -0.25,-0.32 -0.46,-0.66 -0.63,-1.03 -0.35,-0.74 -0.55,-1.56 -0.55,-2.43 0,-3.12 2.55,-5.67 5.67,-5.67 1.81,0 3.43,0.86 4.47,2.2 0.25,0.32 0.47,0.67 0.65,1.05 4.87,7.51 13.32,12.47 22.94,12.47 9.64,0 18.12,-5 22.98,-12.54 0.16,-0.32 0.35,-0.63 0.56,-0.91 1.04,-1.37 2.68,-2.26 4.52,-2.26zm3.76 44.82c5.8,0 10.66,-4 11.99,-9.39l0.28 -1.61 7.48 -42.42 2.32 -13.16 0.98 0 0.02 0c3.1,0 5.64,-2.54 5.64,-5.64 0,-2.77 -2.02,-5.09 -4.66,-5.55 -0.32,-0.06 -0.65,-0.09 -0.98,-0.09l-109.81 0c-0.33,0 -0.65,0.03 -0.96,0.08 -2.65,0.46 -4.68,2.78 -4.68,5.56 0,3.1 2.54,5.64 5.64,5.64l0.02 0 1 0 2.32 13.15 7.58 43 0.08 0.47c1.11,5.67 6.11,9.95 12.11,9.95l63.62 0zm-16.61 -45.83c4,0 7.25,-3.24 7.25,-7.25 0,-4 -3.24,-7.25 -7.25,-7.25 -4,0 -7.25,3.24 -7.25,7.25 0,4 3.24,7.25 7.25,7.25zm-30.46 0c4,0 7.25,-3.24 7.25,-7.25 0,-4 -3.24,-7.25 -7.25,-7.25 -4,0 -7.25,3.24 -7.25,7.25 0,4 3.24,7.25 7.25,7.25z"/>
 </g>
</svg>
