<?xml version="1.0" encoding="UTF-8"?>
<!DOCTYPE svg PUBLIC "-//W3C//DTD SVG 1.1//EN" "http://www.w3.org/Graphics/SVG/1.1/DTD/svg11.dtd">
<!-- Creator: CorelDRAW 2019 (64-Bit) -->
<svg xmlns="http://www.w3.org/2000/svg" xml:space="preserve" width="4.60098in" height="0.958709in" version="1.1" style="shape-rendering:geometricPrecision; text-rendering:geometricPrecision; image-rendering:optimizeQuality; fill-rule:evenodd; clip-rule:evenodd"
viewBox="0 0 318.29 66.32"
 xmlns:xlink="http://www.w3.org/1999/xlink"
 xmlns:xodm="http://www.corel.com/coreldraw/odm/2003">
 <defs>
  <style type="text/css">
   <![CDATA[
    .fil1 {fill:black}
    .fil0 {fill:black;fill-rule:nonzero}
   ]]>
  </style>
 </defs>
 <g id="Layer_x0020_1">
  <metadata id="CorelCorpID_0Corel-Layer"/>
  <path class="fil0" d="M109.48 54.72c-0.41,0 -0.76,-0.15 -1.07,-0.46 -0.31,-0.31 -0.46,-0.66 -0.46,-1.07l0 -39.64c0,-0.45 0.14,-0.82 0.43,-1.13 0.28,-0.31 0.65,-0.46 1.1,-0.46l16.06 0c6.03,0 10.71,1.44 14.05,4.31 3.34,2.87 5.09,6.99 5.25,12.37 0.04,1.18 0.06,2.75 0.06,4.7 0,1.95 -0.02,3.5 -0.06,4.64 -0.41,11.16 -6.74,16.73 -18.99,16.73l-16.37 0zm16.06 -9.16c2.57,0 4.46,-0.61 5.68,-1.83 1.22,-1.22 1.87,-3.18 1.95,-5.86 0.08,-1.18 0.12,-2.71 0.12,-4.58 0,-1.87 -0.04,-3.38 -0.12,-4.52 -0.08,-2.61 -0.78,-4.53 -2.11,-5.77 -1.32,-1.24 -3.27,-1.86 -5.83,-1.86l-5.8 0 0 24.43 6.11 0z"/>
  <path class="fil0" d="M151.02 54.72c-0.41,0 -0.76,-0.15 -1.07,-0.46 -0.31,-0.31 -0.46,-0.66 -0.46,-1.07l0 -28.64c0,-0.45 0.14,-0.82 0.43,-1.13 0.28,-0.31 0.65,-0.46 1.1,-0.46l7.45 0c0.45,0 0.82,0.15 1.13,0.46 0.31,0.31 0.46,0.68 0.46,1.13l0 2.32c1.14,-1.26 2.47,-2.23 4,-2.9 1.53,-0.67 3.23,-1.01 5.1,-1.01l2.75 0c0.45,0 0.81,0.14 1.1,0.43 0.29,0.28 0.43,0.65 0.43,1.1l0 6.66c0,0.41 -0.14,0.76 -0.43,1.07 -0.28,0.31 -0.65,0.46 -1.1,0.46l-6.17 0c-1.63,0 -2.88,0.45 -3.76,1.34 -0.88,0.9 -1.31,2.16 -1.31,3.79l0 15.39c0,0.45 -0.15,0.81 -0.46,1.1 -0.31,0.28 -0.68,0.43 -1.13,0.43l-8.06 0z"/>
  <path class="fil0" d="M185.29 66.32c-0.37,0 -0.67,-0.12 -0.92,-0.37 -0.24,-0.24 -0.37,-0.55 -0.37,-0.92 0,-0.28 0.04,-0.55 0.12,-0.79l4.83 -11.48 -11.73 -27.73c-0.12,-0.33 -0.18,-0.55 -0.18,-0.67 0.08,-0.41 0.25,-0.74 0.52,-1.01 0.26,-0.26 0.58,-0.4 0.95,-0.4l7.27 0c0.85,0 1.45,0.43 1.77,1.28l6.78 17.34 6.96 -17.34c0.41,-0.85 1.02,-1.28 1.83,-1.28l7.21 0c0.37,0 0.68,0.13 0.95,0.4 0.26,0.26 0.4,0.56 0.4,0.89 0,0.28 -0.04,0.55 -0.12,0.79l-17.28 40c-0.41,0.85 -1.04,1.28 -1.89,1.28l-7.08 0z"/>
  <path class="fil0" d="M215.95 54.72c-0.41,0 -0.76,-0.15 -1.07,-0.46 -0.31,-0.31 -0.46,-0.66 -0.46,-1.07l0 -39.64c0,-0.45 0.14,-0.82 0.43,-1.13 0.28,-0.31 0.65,-0.46 1.1,-0.46l8.18 0c0.45,0 0.81,0.15 1.1,0.46 0.28,0.31 0.43,0.68 0.43,1.13l0 13.31 10.81 -13.68c0.45,-0.81 1.24,-1.22 2.38,-1.22l9.34 0c0.33,0 0.62,0.13 0.89,0.4 0.26,0.26 0.4,0.56 0.4,0.89 0,0.33 -0.08,0.57 -0.24,0.73l-14.23 18.44 15.39 20.28c0.16,0.16 0.24,0.41 0.24,0.73 0,0.33 -0.13,0.62 -0.4,0.89 -0.26,0.26 -0.58,0.4 -0.95,0.4l-9.59 0c-0.65,0 -1.18,-0.13 -1.59,-0.4 -0.41,-0.26 -0.69,-0.54 -0.85,-0.82l-11.6 -14.9 0 14.6c0,0.41 -0.14,0.76 -0.43,1.07 -0.28,0.31 -0.65,0.46 -1.1,0.46l-8.18 0z"/>
  <path class="fil0" d="M256.68 54.72c-0.45,0 -0.82,-0.14 -1.13,-0.43 -0.31,-0.28 -0.46,-0.65 -0.46,-1.1l0 -40.31c0,-0.45 0.15,-0.81 0.46,-1.1 0.31,-0.28 0.68,-0.43 1.13,-0.43l7.63 0c0.45,0 0.81,0.14 1.1,0.43 0.29,0.29 0.43,0.65 0.43,1.1l0 40.31c0,0.41 -0.14,0.76 -0.43,1.07 -0.28,0.31 -0.65,0.46 -1.1,0.46l-7.63 0z"/>
  <path class="fil0" d="M271.82 18.56c-0.45,0 -0.81,-0.15 -1.1,-0.46 -0.28,-0.31 -0.43,-0.68 -0.43,-1.13l0 -5.68c0,-0.45 0.15,-0.82 0.46,-1.13 0.31,-0.31 0.66,-0.46 1.07,-0.46l7.63 0c0.45,0 0.82,0.15 1.13,0.46 0.31,0.31 0.46,0.68 0.46,1.13l0 5.68c0,0.45 -0.15,0.82 -0.46,1.13 -0.31,0.31 -0.68,0.46 -1.13,0.46l-7.63 0zm0 36.16c-0.41,0 -0.76,-0.15 -1.07,-0.46 -0.31,-0.31 -0.46,-0.66 -0.46,-1.07l0 -28.7c0,-0.45 0.15,-0.81 0.46,-1.1 0.31,-0.29 0.66,-0.43 1.07,-0.43l7.63 0c0.45,0 0.82,0.14 1.13,0.43 0.31,0.28 0.46,0.65 0.46,1.1l0 28.7c0,0.45 -0.15,0.81 -0.46,1.1 -0.31,0.28 -0.68,0.43 -1.13,0.43l-7.63 0z"/>
  <path class="fil0" d="M287.02 54.72c-0.41,0 -0.76,-0.15 -1.07,-0.46 -0.31,-0.31 -0.46,-0.66 -0.46,-1.07l0 -28.7c0,-0.45 0.15,-0.81 0.46,-1.1 0.31,-0.29 0.66,-0.43 1.07,-0.43l7.51 0c0.45,0 0.81,0.14 1.1,0.43 0.28,0.28 0.43,0.65 0.43,1.1l0 2.32c1.1,-1.34 2.51,-2.42 4.24,-3.24 1.73,-0.81 3.72,-1.22 5.95,-1.22 2.32,0 4.39,0.53 6.2,1.59 1.81,1.06 3.24,2.63 4.28,4.7 1.04,2.08 1.56,4.58 1.56,7.51l0 17.04c0,0.41 -0.14,0.76 -0.43,1.07 -0.28,0.31 -0.65,0.46 -1.1,0.46l-8.12 0c-0.45,0 -0.82,-0.14 -1.13,-0.43 -0.31,-0.28 -0.46,-0.65 -0.46,-1.1l0 -16.67c0,-1.83 -0.44,-3.24 -1.31,-4.21 -0.88,-0.98 -2.15,-1.47 -3.82,-1.47 -1.63,0 -2.91,0.5 -3.85,1.5 -0.94,1 -1.41,2.39 -1.41,4.18l0 16.67c0,0.41 -0.14,0.76 -0.43,1.07 -0.28,0.31 -0.65,0.46 -1.1,0.46l-8.12 0z"/>
  <path class="fil1" d="M67.11 25.02c2.36,0 4.29,1.93 4.29,4.29 0,0.63 -0.14,1.23 -0.38,1.77 -0.15,0.33 -0.34,0.63 -0.56,0.9 -5.19,8.09 -14.27,13.46 -24.6,13.46 -10.36,0 -19.45,-5.39 -24.64,-13.52 -0.19,-0.24 -0.35,-0.5 -0.48,-0.78 -0.27,-0.56 -0.42,-1.18 -0.42,-1.84 0,-2.36 1.93,-4.29 4.29,-4.29 1.37,0 2.6,0.65 3.39,1.67 0.19,0.24 0.35,0.51 0.49,0.79 3.69,5.68 10.09,9.44 17.37,9.44 7.3,0 13.72,-3.78 17.41,-9.5 0.12,-0.24 0.26,-0.47 0.43,-0.69 0.78,-1.04 2.03,-1.71 3.43,-1.71zm2.85 33.94c4.39,0 8.08,-3.03 9.08,-7.11l0.22 -1.22 5.66 -32.13 1.76 -9.96 0.74 0 0.01 0c2.35,0 4.27,-1.92 4.27,-4.27 0,-2.1 -1.53,-3.85 -3.53,-4.21 -0.24,-0.04 -0.49,-0.07 -0.74,-0.07l-83.16 0c-0.25,0 -0.49,0.02 -0.73,0.06 -2.01,0.35 -3.55,2.11 -3.55,4.21 0,2.35 1.92,4.27 4.27,4.27l0.01 0 0.76 0 1.76 9.96 5.74 32.56 0.06 0.36c0.84,4.3 4.63,7.54 9.17,7.54l48.18 0zm-12.58 -34.71c3.03,0 5.49,-2.46 5.49,-5.49 0,-3.03 -2.46,-5.49 -5.49,-5.49 -3.03,0 -5.49,2.46 -5.49,5.49 0,3.03 2.46,5.49 5.49,5.49zm-23.07 0c3.03,0 5.49,-2.46 5.49,-5.49 0,-3.03 -2.46,-5.49 -5.49,-5.49 -3.03,0 -5.49,2.46 -5.49,5.49 0,3.03 2.46,5.49 5.49,5.49z"/>
 </g>
</svg>
