<?xml version="1.0" encoding="UTF-8"?>
<!DOCTYPE svg PUBLIC "-//W3C//DTD SVG 1.1//EN" "http://www.w3.org/Graphics/SVG/1.1/DTD/svg11.dtd">
<!-- Creator: CorelDRAW 2019 (64-Bit) -->
<svg xmlns="http://www.w3.org/2000/svg" xml:space="preserve" width="4.40974in" height="2.83542in" version="1.1" style="shape-rendering:geometricPrecision; text-rendering:geometricPrecision; image-rendering:optimizeQuality; fill-rule:evenodd; clip-rule:evenodd"
viewBox="0 0 565.18 363.41"
 xmlns:xlink="http://www.w3.org/1999/xlink"
 xmlns:xodm="http://www.corel.com/coreldraw/odm/2003">
 <defs>
  <style type="text/css">
   <![CDATA[
    .fil0 {fill:white}
   ]]>
  </style>
 </defs>
 <g id="Layer_x0020_1">
  <metadata id="CorelCorpID_0Corel-Layer"/>
  <path class="fil0" d="M413.66 154.21c14.54,0 26.44,11.9 26.44,26.44 0,3.88 -0.85,7.58 -2.37,10.91 -0.91,2 -2.07,3.87 -3.44,5.58 -32.01,49.89 -87.97,82.95 -151.65,82.95 -63.83,0 -119.9,-33.22 -151.88,-83.31 -1.15,-1.48 -2.14,-3.09 -2.95,-4.79 -1.64,-3.44 -2.57,-7.28 -2.57,-11.33 0,-14.54 11.9,-26.44 26.44,-26.44 8.46,0 16.03,4.03 20.88,10.27 1.17,1.51 2.18,3.14 3.01,4.88 22.73,35.04 62.19,58.21 107.06,58.21 45.01,0 84.58,-23.32 107.28,-58.54 0.74,-1.5 1.62,-2.92 2.62,-4.25 4.84,-6.41 12.51,-10.57 21.11,-10.57zm17.54 209.19c27.07,0 49.77,-18.66 55.96,-43.81l1.33 -7.52 34.92 -198.02 10.83 -61.41 4.56 0 0.07 0c14.48,0 26.32,-11.85 26.32,-26.32 0,-12.92 -9.43,-23.74 -21.75,-25.92 -1.49,-0.26 -3.02,-0.4 -4.58,-0.4l-512.53 0c-1.52,0 -3.02,0.13 -4.47,0.38 -12.37,2.14 -21.86,12.99 -21.86,25.94 0,14.48 11.85,26.32 26.32,26.32l0.08 0 4.67 0 10.83 61.39 35.39 200.71 0.39 2.21c5.2,26.47 28.54,46.44 56.54,46.44l296.98 0zm-77.51 -213.91c18.68,0 33.82,-15.14 33.82,-33.82 0,-18.68 -15.14,-33.82 -33.82,-33.82 -18.68,0 -33.82,15.14 -33.82,33.82 0,18.68 15.14,33.82 33.82,33.82zm-142.19 0c18.68,0 33.82,-15.14 33.82,-33.82 0,-18.68 -15.14,-33.82 -33.82,-33.82 -18.68,0 -33.82,15.14 -33.82,33.82 0,18.68 15.14,33.82 33.82,33.82z"/>
 </g>
</svg>
