<?xml version="1.0" encoding="UTF-8"?>
<!DOCTYPE svg PUBLIC "-//W3C//DTD SVG 1.1//EN" "http://www.w3.org/Graphics/SVG/1.1/DTD/svg11.dtd">
<!-- Creator: CorelDRAW 2019 (64-Bit) -->
<svg xmlns="http://www.w3.org/2000/svg" xml:space="preserve" width="4.40974in" height="2.83542in" version="1.1" style="shape-rendering:geometricPrecision; text-rendering:geometricPrecision; image-rendering:optimizeQuality; fill-rule:evenodd; clip-rule:evenodd"
viewBox="0 0 384.42 247.18"
 xmlns:xlink="http://www.w3.org/1999/xlink"
 xmlns:xodm="http://www.corel.com/coreldraw/odm/2003">
 <defs>
  <style type="text/css">
   <![CDATA[
    .fil0 {fill:black}
   ]]>
  </style>
 </defs>
 <g id="Layer_x0020_1">
  <metadata id="CorelCorpID_0Corel-Layer"/>
  <path class="fil0" d="M281.36 104.89c9.89,0 17.99,8.09 17.99,17.99 0,2.64 -0.58,5.16 -1.61,7.42 -0.62,1.36 -1.41,2.64 -2.34,3.79 -21.77,33.93 -59.83,56.42 -103.15,56.42 -43.42,0 -81.56,-22.59 -103.3,-56.66 -0.78,-1.01 -1.45,-2.1 -2.01,-3.26 -1.12,-2.34 -1.75,-4.95 -1.75,-7.71 0,-9.89 8.09,-17.99 17.99,-17.99 5.76,0 10.9,2.74 14.2,6.98 0.8,1.02 1.48,2.14 2.05,3.32 15.46,23.83 42.3,39.6 72.82,39.6 30.62,0 57.53,-15.86 72.97,-39.82 0.5,-1.02 1.1,-1.99 1.78,-2.89 3.29,-4.36 8.51,-7.19 14.36,-7.19zm11.93 142.29c18.41,0 33.85,-12.69 38.06,-29.8l0.9 -5.12 23.75 -134.68 7.36 -41.77 3.1 0 0.05 0c9.85,0 17.91,-8.06 17.91,-17.91 0,-8.79 -6.41,-16.15 -14.79,-17.63 -1.01,-0.18 -2.05,-0.27 -3.11,-0.27l-348.61 0c-1.04,0 -2.05,0.09 -3.04,0.26 -8.41,1.45 -14.87,8.83 -14.87,17.65 0,9.85 8.06,17.91 17.91,17.91l0.05 0 3.18 0 7.36 41.76 24.07 136.52 0.27 1.51c3.54,18.01 19.41,31.59 38.46,31.59l202 0zm-52.72 -145.5c12.71,0 23,-10.3 23,-23 0,-12.71 -10.3,-23 -23,-23 -12.71,0 -23,10.3 -23,23 0,12.71 10.3,23 23,23zm-96.71 0c12.71,0 23,-10.3 23,-23 0,-12.71 -10.3,-23 -23,-23 -12.71,0 -23,10.3 -23,23 0,12.71 10.3,23 23,23z"/>
 </g>
</svg>
