<?xml version="1.0" encoding="UTF-8"?>
<!DOCTYPE svg PUBLIC "-//W3C//DTD SVG 1.1//EN" "http://www.w3.org/Graphics/SVG/1.1/DTD/svg11.dtd">
<!-- Creator: CorelDRAW 2019 (64-Bit) -->
<svg xmlns="http://www.w3.org/2000/svg" xml:space="preserve" width="3.7445in" height="2.50731in" version="1.1" style="shape-rendering:geometricPrecision; text-rendering:geometricPrecision; image-rendering:optimizeQuality; fill-rule:evenodd; clip-rule:evenodd"
viewBox="0 0 399.66 267.61"
 xmlns:xlink="http://www.w3.org/1999/xlink"
 xmlns:xodm="http://www.corel.com/coreldraw/odm/2003">
 <defs>
  <style type="text/css">
   <![CDATA[
    .fil1 {fill:#E86317}
    .fil0 {fill:black;fill-rule:nonzero}
   ]]>
  </style>
 </defs>
 <g id="Layer_x0020_1">
  <metadata id="CorelCorpID_0Corel-Layer"/>
  <path class="fil0" d="M1.73 254.49c-0.46,0 -0.86,-0.17 -1.21,-0.52 -0.34,-0.34 -0.52,-0.75 -0.52,-1.21l0 -44.82c0,-0.51 0.16,-0.93 0.48,-1.28 0.32,-0.34 0.74,-0.52 1.24,-0.52l18.16 0c6.81,0 12.11,1.62 15.88,4.87 3.78,3.25 5.75,7.91 5.94,13.98 0.05,1.34 0.07,3.11 0.07,5.32 0,2.21 -0.02,3.96 -0.07,5.25 -0.46,12.61 -7.62,18.92 -21.48,18.92l-18.51 0zm18.16 -10.36c2.9,0 5.04,-0.69 6.42,-2.07 1.38,-1.38 2.12,-3.59 2.21,-6.63 0.09,-1.34 0.14,-3.06 0.14,-5.18 0,-2.12 -0.05,-3.82 -0.14,-5.11 -0.09,-2.95 -0.89,-5.12 -2.38,-6.53 -1.5,-1.4 -3.69,-2.11 -6.59,-2.11l-6.56 0 0 27.62 6.91 0z"/>
  <path class="fil0" d="M48.7 254.49c-0.46,0 -0.86,-0.17 -1.21,-0.52 -0.35,-0.34 -0.52,-0.75 -0.52,-1.21l0 -32.39c0,-0.51 0.16,-0.93 0.48,-1.28 0.32,-0.35 0.74,-0.52 1.24,-0.52l8.42 0c0.51,0 0.93,0.17 1.28,0.52 0.35,0.35 0.52,0.77 0.52,1.28l0 2.62c1.29,-1.43 2.8,-2.52 4.52,-3.28 1.73,-0.76 3.65,-1.14 5.77,-1.14l3.11 0c0.51,0 0.92,0.16 1.24,0.48 0.32,0.32 0.48,0.74 0.48,1.24l0 7.53c0,0.46 -0.16,0.86 -0.48,1.21 -0.32,0.35 -0.74,0.52 -1.24,0.52l-6.98 0c-1.84,0 -3.26,0.51 -4.25,1.52 -0.99,1.01 -1.49,2.44 -1.49,4.28l0 17.4c0,0.51 -0.17,0.92 -0.52,1.24 -0.35,0.32 -0.77,0.48 -1.28,0.48l-9.12 0z"/>
  <path class="fil0" d="M87.44 267.61c-0.41,0 -0.76,-0.14 -1.04,-0.41 -0.28,-0.28 -0.41,-0.62 -0.41,-1.04 0,-0.32 0.05,-0.62 0.14,-0.9l5.46 -12.98 -13.26 -31.35c-0.14,-0.37 -0.21,-0.62 -0.21,-0.76 0.09,-0.46 0.29,-0.84 0.59,-1.14 0.3,-0.3 0.66,-0.45 1.07,-0.45l8.22 0c0.97,0 1.63,0.48 2,1.45l7.67 19.61 7.87 -19.61c0.46,-0.97 1.15,-1.45 2.07,-1.45l8.15 0c0.41,0 0.77,0.15 1.07,0.45 0.3,0.3 0.45,0.63 0.45,1 0,0.32 -0.05,0.62 -0.14,0.9l-19.54 45.23c-0.46,0.97 -1.17,1.45 -2.14,1.45l-8.01 0z"/>
  <path class="fil0" d="M122.11 254.49c-0.46,0 -0.86,-0.17 -1.21,-0.52 -0.34,-0.34 -0.52,-0.75 -0.52,-1.21l0 -44.82c0,-0.51 0.16,-0.93 0.48,-1.28 0.32,-0.34 0.74,-0.52 1.24,-0.52l9.25 0c0.51,0 0.92,0.17 1.24,0.52 0.32,0.35 0.48,0.77 0.48,1.28l0 15.05 12.22 -15.47c0.51,-0.92 1.4,-1.38 2.69,-1.38l10.57 0c0.37,0 0.7,0.15 1,0.45 0.3,0.3 0.45,0.63 0.45,1 0,0.37 -0.09,0.65 -0.28,0.83l-16.09 20.85 17.4 22.93c0.18,0.18 0.28,0.46 0.28,0.83 0,0.37 -0.15,0.7 -0.45,1 -0.3,0.3 -0.66,0.45 -1.07,0.45l-10.84 0c-0.74,0 -1.34,-0.15 -1.8,-0.45 -0.46,-0.3 -0.78,-0.61 -0.97,-0.93l-13.12 -16.85 0 16.5c0,0.46 -0.16,0.86 -0.48,1.21 -0.32,0.35 -0.74,0.52 -1.24,0.52l-9.25 0z"/>
  <path class="fil0" d="M168.17 254.49c-0.51,0 -0.93,-0.16 -1.28,-0.48 -0.35,-0.32 -0.52,-0.74 -0.52,-1.24l0 -45.58c0,-0.51 0.17,-0.92 0.52,-1.24 0.34,-0.32 0.77,-0.48 1.28,-0.48l8.63 0c0.51,0 0.92,0.16 1.24,0.48 0.32,0.32 0.48,0.74 0.48,1.24l0 45.58c0,0.46 -0.16,0.86 -0.48,1.21 -0.32,0.35 -0.74,0.52 -1.24,0.52l-8.63 0z"/>
  <path class="fil0" d="M185.29 213.61c-0.51,0 -0.92,-0.17 -1.24,-0.52 -0.32,-0.35 -0.48,-0.77 -0.48,-1.28l0 -6.42c0,-0.51 0.17,-0.93 0.52,-1.28 0.34,-0.35 0.75,-0.52 1.21,-0.52l8.63 0c0.51,0 0.93,0.17 1.28,0.52 0.34,0.35 0.52,0.77 0.52,1.28l0 6.42c0,0.51 -0.17,0.93 -0.52,1.28 -0.35,0.34 -0.77,0.52 -1.28,0.52l-8.63 0zm0 40.88c-0.46,0 -0.86,-0.17 -1.21,-0.52 -0.35,-0.34 -0.52,-0.75 -0.52,-1.21l0 -32.46c0,-0.51 0.17,-0.92 0.52,-1.24 0.34,-0.32 0.75,-0.48 1.21,-0.48l8.63 0c0.51,0 0.93,0.16 1.28,0.48 0.34,0.32 0.52,0.74 0.52,1.24l0 32.46c0,0.51 -0.17,0.92 -0.52,1.24 -0.35,0.32 -0.77,0.48 -1.28,0.48l-8.63 0z"/>
  <path class="fil0" d="M202.48 254.49c-0.46,0 -0.86,-0.17 -1.21,-0.52 -0.35,-0.34 -0.52,-0.75 -0.52,-1.21l0 -32.46c0,-0.51 0.17,-0.92 0.52,-1.24 0.34,-0.32 0.75,-0.48 1.21,-0.48l8.49 0c0.51,0 0.92,0.16 1.24,0.48 0.32,0.32 0.48,0.74 0.48,1.24l0 2.62c1.24,-1.52 2.84,-2.74 4.8,-3.66 1.96,-0.92 4.2,-1.38 6.73,-1.38 2.62,0 4.96,0.6 7.01,1.8 2.05,1.2 3.66,2.97 4.83,5.32 1.17,2.35 1.76,5.18 1.76,8.49l0 19.27c0,0.46 -0.16,0.86 -0.48,1.21 -0.32,0.35 -0.74,0.52 -1.24,0.52l-9.18 0c-0.51,0 -0.93,-0.16 -1.28,-0.48 -0.35,-0.32 -0.52,-0.74 -0.52,-1.24l0 -18.85c0,-2.07 -0.5,-3.66 -1.49,-4.76 -0.99,-1.11 -2.43,-1.66 -4.32,-1.66 -1.84,0 -3.29,0.56 -4.35,1.69 -1.06,1.13 -1.59,2.7 -1.59,4.73l0 18.85c0,0.46 -0.16,0.86 -0.48,1.21 -0.32,0.35 -0.74,0.52 -1.24,0.52l-9.18 0z"/>
  <path class="fil0" d="M244.67 254.49c-0.51,0 -0.93,-0.16 -1.28,-0.48 -0.35,-0.32 -0.52,-0.74 -0.52,-1.24l0 -9.12c0,-0.51 0.17,-0.93 0.52,-1.28 0.35,-0.34 0.77,-0.52 1.28,-0.52l9.12 0c0.51,0 0.92,0.17 1.24,0.52 0.32,0.35 0.48,0.77 0.48,1.28l0 9.12c0,0.46 -0.16,0.86 -0.48,1.21 -0.32,0.35 -0.74,0.52 -1.24,0.52l-9.12 0z"/>
  <path class="fil0" d="M278.45 255.18c-5.25,0 -9.5,-1.39 -12.74,-4.18 -3.25,-2.79 -4.98,-6.66 -5.21,-11.64l-0.07 -2.76 0.07 -2.83c0.18,-4.97 1.91,-8.86 5.18,-11.67 3.27,-2.81 7.53,-4.21 12.78,-4.21 4.01,0 7.37,0.71 10.08,2.14 2.72,1.43 4.74,3.12 6.08,5.08 1.34,1.96 2.05,3.74 2.14,5.35 0.05,0.51 -0.12,0.93 -0.48,1.28 -0.37,0.35 -0.81,0.52 -1.31,0.52l-9.25 0c-0.51,0 -0.9,-0.12 -1.17,-0.35 -0.28,-0.23 -0.53,-0.6 -0.76,-1.1 -0.51,-1.29 -1.16,-2.23 -1.97,-2.83 -0.81,-0.6 -1.83,-0.9 -3.07,-0.9 -3.54,0 -5.39,2.35 -5.52,7.04l-0.07 2.62 0.07 2.28c0.05,2.39 0.53,4.16 1.45,5.28 0.92,1.13 2.28,1.69 4.07,1.69 1.34,0 2.38,-0.29 3.14,-0.86 0.76,-0.58 1.39,-1.53 1.9,-2.87 0.23,-0.51 0.48,-0.88 0.76,-1.11 0.28,-0.23 0.67,-0.34 1.17,-0.34l9.25 0c0.46,0 0.87,0.16 1.24,0.48 0.37,0.32 0.55,0.71 0.55,1.17 0,1.43 -0.63,3.14 -1.9,5.14 -1.27,2 -3.28,3.76 -6.04,5.28 -2.76,1.52 -6.22,2.28 -10.36,2.28z"/>
  <path class="fil0" d="M320.2 255.18c-5.8,0 -10.26,-1.35 -13.36,-4.04 -3.11,-2.69 -4.8,-6.53 -5.08,-11.5 -0.05,-0.6 -0.07,-1.63 -0.07,-3.11 0,-1.47 0.02,-2.51 0.07,-3.11 0.28,-4.88 2.01,-8.69 5.21,-11.43 3.2,-2.74 7.61,-4.11 13.22,-4.11 5.62,0 10.02,1.37 13.22,4.11 3.2,2.74 4.94,6.55 5.21,11.43 0.09,1.2 0.14,2.23 0.14,3.11 0,0.87 -0.05,1.91 -0.14,3.11 -0.28,4.97 -1.97,8.81 -5.08,11.5 -3.11,2.69 -7.56,4.04 -13.36,4.04zm0 -8.7c1.89,0 3.29,-0.59 4.21,-1.76 0.92,-1.17 1.45,-2.98 1.59,-5.42 0.05,-0.46 0.07,-1.38 0.07,-2.76 0,-1.38 -0.02,-2.3 -0.07,-2.76 -0.14,-2.39 -0.67,-4.19 -1.59,-5.39 -0.92,-1.2 -2.33,-1.8 -4.21,-1.8 -1.89,0 -3.29,0.6 -4.21,1.8 -0.92,1.2 -1.45,2.99 -1.59,5.39l-0.07 2.76 0.07 2.76c0.14,2.44 0.67,4.25 1.59,5.42 0.92,1.17 2.33,1.76 4.21,1.76z"/>
  <path class="fil0" d="M345.52 254.49c-0.46,0 -0.86,-0.17 -1.21,-0.52 -0.35,-0.34 -0.52,-0.75 -0.52,-1.21l0 -32.46c0,-0.51 0.17,-0.92 0.52,-1.24 0.34,-0.32 0.75,-0.48 1.21,-0.48l8.01 0c0.51,0 0.92,0.16 1.24,0.48 0.32,0.32 0.48,0.74 0.48,1.24l0 2.35c1.1,-1.34 2.53,-2.46 4.28,-3.38 1.75,-0.92 3.73,-1.38 5.94,-1.38 5.06,0 8.54,1.98 10.43,5.94 1.1,-1.75 2.65,-3.18 4.63,-4.28 1.98,-1.11 4.1,-1.66 6.35,-1.66 3.78,0 6.85,1.28 9.22,3.83 2.37,2.56 3.56,6.36 3.56,11.43l0 19.61c0,0.46 -0.16,0.86 -0.48,1.21 -0.32,0.35 -0.74,0.52 -1.24,0.52l-8.49 0c-0.51,0 -0.93,-0.16 -1.28,-0.48 -0.35,-0.32 -0.52,-0.74 -0.52,-1.24l0 -19.13c0,-2.12 -0.45,-3.67 -1.35,-4.66 -0.9,-0.99 -2.11,-1.49 -3.63,-1.49 -1.43,0 -2.59,0.5 -3.49,1.49 -0.9,0.99 -1.35,2.54 -1.35,4.66l0 19.13c0,0.46 -0.16,0.86 -0.48,1.21 -0.32,0.35 -0.74,0.52 -1.24,0.52l-8.49 0c-0.51,0 -0.93,-0.16 -1.28,-0.48 -0.34,-0.32 -0.52,-0.74 -0.52,-1.24l0 -19.13c0,-2.12 -0.46,-3.67 -1.38,-4.66 -0.92,-0.99 -2.12,-1.49 -3.59,-1.49 -1.43,0 -2.6,0.5 -3.52,1.49 -0.92,0.99 -1.38,2.52 -1.38,4.59l0 19.2c0,0.46 -0.16,0.86 -0.48,1.21 -0.32,0.35 -0.74,0.52 -1.24,0.52l-8.7 0z"/>
  <path class="fil1" d="M258.7 69.44c6.55,0 11.91,5.36 11.91,11.91 0,1.75 -0.38,3.41 -1.07,4.91 -0.41,0.9 -0.93,1.74 -1.55,2.51 -14.41,22.46 -39.61,37.35 -68.28,37.35 -28.74,0 -53.99,-14.96 -68.39,-37.51 -0.52,-0.67 -0.96,-1.39 -1.33,-2.16 -0.74,-1.55 -1.16,-3.28 -1.16,-5.1 0,-6.55 5.36,-11.91 11.91,-11.91 3.81,0 7.22,1.81 9.4,4.62 0.53,0.68 0.98,1.41 1.36,2.2 10.23,15.78 28,26.21 48.21,26.21 20.27,0 38.08,-10.5 48.3,-26.36 0.33,-0.68 0.73,-1.32 1.18,-1.91 2.18,-2.88 5.63,-4.76 9.51,-4.76zm7.9 94.19c12.19,0 22.41,-8.4 25.2,-19.73l0.6 -3.39 15.72 -89.16 4.88 -27.65 2.05 0 0.03 0c6.52,0 11.85,-5.33 11.85,-11.85 0,-5.82 -4.25,-10.69 -9.79,-11.67 -0.67,-0.12 -1.36,-0.18 -2.06,-0.18l-230.78 0c-0.69,0 -1.36,0.06 -2.01,0.17 -5.57,0.96 -9.84,5.85 -9.84,11.68 0,6.52 5.33,11.85 11.85,11.85l0.03 0 2.1 0 4.87 27.64 15.94 90.37 0.18 1c2.34,11.92 12.85,20.91 25.46,20.91l133.72 0zm-34.9 -96.32c8.41,0 15.23,-6.82 15.23,-15.23 0,-8.41 -6.82,-15.23 -15.23,-15.23 -8.41,0 -15.23,6.82 -15.23,15.23 0,8.41 6.82,15.23 15.23,15.23zm-64.02 0c8.41,0 15.23,-6.82 15.23,-15.23 0,-8.41 -6.82,-15.23 -15.23,-15.23 -8.41,0 -15.23,6.82 -15.23,15.23 0,8.41 6.82,15.23 15.23,15.23z"/>
 </g>
</svg>
