<?xml version="1.0" encoding="UTF-8"?>
<!DOCTYPE svg PUBLIC "-//W3C//DTD SVG 1.1//EN" "http://www.w3.org/Graphics/SVG/1.1/DTD/svg11.dtd">
<!-- Creator: CorelDRAW 2019 (64-Bit) -->
<svg xmlns="http://www.w3.org/2000/svg" xml:space="preserve" width="2.38435in" height="2.5065in" version="1.1" style="shape-rendering:geometricPrecision; text-rendering:geometricPrecision; image-rendering:optimizeQuality; fill-rule:evenodd; clip-rule:evenodd"
viewBox="0 0 280.38 294.74"
 xmlns:xlink="http://www.w3.org/1999/xlink"
 xmlns:xodm="http://www.corel.com/coreldraw/odm/2003">
 <defs>
  <style type="text/css">
   <![CDATA[
    .fil1 {fill:white}
    .fil0 {fill:white;fill-rule:nonzero}
   ]]>
  </style>
 </defs>
 <g id="Layer_x0020_1">
  <metadata id="CorelCorpID_0Corel-Layer"/>
  <path class="fil0" d="M10.81 280.29c-0.51,0 -0.95,-0.19 -1.33,-0.57 -0.38,-0.38 -0.57,-0.82 -0.57,-1.33l0 -49.38c0,-0.56 0.18,-1.03 0.53,-1.41 0.35,-0.38 0.81,-0.57 1.37,-0.57l20.01 0c7.51,0 13.34,1.79 17.5,5.36 4.16,3.58 6.34,8.71 6.54,15.41 0.05,1.47 0.08,3.42 0.08,5.86 0,2.44 -0.03,4.36 -0.08,5.78 -0.51,13.9 -8.39,20.85 -23.66,20.85l-20.39 0zm20.01 -11.41c3.2,0 5.55,-0.76 7.08,-2.28 1.52,-1.52 2.33,-3.96 2.44,-7.3 0.1,-1.47 0.15,-3.37 0.15,-5.71 0,-2.33 -0.05,-4.21 -0.15,-5.63 -0.1,-3.25 -0.98,-5.64 -2.63,-7.19 -1.65,-1.55 -4.07,-2.32 -7.27,-2.32l-7.23 0 0 30.43 7.61 0z"/>
  <path class="fil0" d="M62.56 280.29c-0.51,0 -0.95,-0.19 -1.33,-0.57 -0.38,-0.38 -0.57,-0.82 -0.57,-1.33l0 -35.68c0,-0.56 0.18,-1.03 0.53,-1.41 0.36,-0.38 0.81,-0.57 1.37,-0.57l9.28 0c0.56,0 1.03,0.19 1.41,0.57 0.38,0.38 0.57,0.85 0.57,1.41l0 2.89c1.42,-1.57 3.08,-2.78 4.98,-3.61 1.9,-0.84 4.02,-1.26 6.35,-1.26l3.42 0c0.56,0 1.01,0.18 1.37,0.53 0.36,0.36 0.53,0.81 0.53,1.37l0 8.29c0,0.51 -0.18,0.95 -0.53,1.33 -0.36,0.38 -0.81,0.57 -1.37,0.57l-7.68 0c-2.03,0 -3.59,0.56 -4.68,1.67 -1.09,1.12 -1.64,2.69 -1.64,4.72l0 19.17c0,0.56 -0.19,1.01 -0.57,1.37 -0.38,0.36 -0.85,0.53 -1.41,0.53l-10.04 0z"/>
  <path class="fil0" d="M105.25 294.74c-0.46,0 -0.84,-0.15 -1.14,-0.46 -0.3,-0.3 -0.46,-0.68 -0.46,-1.14 0,-0.36 0.05,-0.68 0.15,-0.99l6.01 -14.3 -14.61 -34.54c-0.15,-0.41 -0.23,-0.68 -0.23,-0.84 0.1,-0.51 0.32,-0.93 0.65,-1.26 0.33,-0.33 0.72,-0.49 1.18,-0.49l9.05 0c1.07,0 1.8,0.53 2.21,1.6l8.45 21.61 8.67 -21.61c0.51,-1.07 1.27,-1.6 2.28,-1.6l8.98 0c0.46,0 0.85,0.16 1.18,0.49 0.33,0.33 0.49,0.7 0.49,1.1 0,0.36 -0.05,0.68 -0.15,0.99l-21.53 49.83c-0.51,1.07 -1.29,1.6 -2.36,1.6l-8.83 0z"/>
  <path class="fil0" d="M143.45 280.29c-0.51,0 -0.95,-0.19 -1.33,-0.57 -0.38,-0.38 -0.57,-0.82 -0.57,-1.33l0 -49.38c0,-0.56 0.18,-1.03 0.53,-1.41 0.35,-0.38 0.81,-0.57 1.37,-0.57l10.2 0c0.56,0 1.01,0.19 1.37,0.57 0.36,0.38 0.53,0.85 0.53,1.41l0 16.59 13.47 -17.04c0.56,-1.01 1.55,-1.52 2.97,-1.52l11.64 0c0.41,0 0.77,0.16 1.1,0.49 0.33,0.33 0.49,0.7 0.49,1.1 0,0.41 -0.1,0.71 -0.3,0.91l-17.73 22.98 19.17 25.26c0.2,0.2 0.3,0.51 0.3,0.91 0,0.41 -0.17,0.77 -0.49,1.1 -0.33,0.33 -0.72,0.49 -1.18,0.49l-11.94 0c-0.81,0 -1.47,-0.16 -1.98,-0.49 -0.51,-0.33 -0.86,-0.67 -1.07,-1.03l-14.46 -18.56 0 18.18c0,0.51 -0.18,0.95 -0.53,1.33 -0.35,0.38 -0.81,0.57 -1.37,0.57l-10.2 0z"/>
  <path class="fil0" d="M194.19 280.29c-0.56,0 -1.03,-0.18 -1.41,-0.53 -0.38,-0.35 -0.57,-0.81 -0.57,-1.37l0 -50.21c0,-0.56 0.19,-1.01 0.57,-1.37 0.38,-0.36 0.85,-0.53 1.41,-0.53l9.51 0c0.56,0 1.01,0.18 1.37,0.53 0.36,0.36 0.53,0.81 0.53,1.37l0 50.21c0,0.51 -0.18,0.95 -0.53,1.33 -0.36,0.38 -0.81,0.57 -1.37,0.57l-9.51 0z"/>
  <path class="fil0" d="M213.05 235.25c-0.56,0 -1.01,-0.19 -1.37,-0.57 -0.35,-0.38 -0.53,-0.85 -0.53,-1.41l0 -7.08c0,-0.56 0.19,-1.03 0.57,-1.41 0.38,-0.38 0.82,-0.57 1.33,-0.57l9.51 0c0.56,0 1.03,0.19 1.41,0.57 0.38,0.38 0.57,0.85 0.57,1.41l0 7.08c0,0.56 -0.19,1.03 -0.57,1.41 -0.38,0.38 -0.85,0.57 -1.41,0.57l-9.51 0zm0 45.04c-0.51,0 -0.95,-0.19 -1.33,-0.57 -0.38,-0.38 -0.57,-0.82 -0.57,-1.33l0 -35.76c0,-0.56 0.19,-1.01 0.57,-1.37 0.38,-0.36 0.82,-0.53 1.33,-0.53l9.51 0c0.56,0 1.03,0.18 1.41,0.53 0.38,0.36 0.57,0.81 0.57,1.37l0 35.76c0,0.56 -0.19,1.01 -0.57,1.37 -0.38,0.36 -0.85,0.53 -1.41,0.53l-9.51 0z"/>
  <path class="fil0" d="M231.99 280.29c-0.51,0 -0.95,-0.19 -1.33,-0.57 -0.38,-0.38 -0.57,-0.82 -0.57,-1.33l0 -35.76c0,-0.56 0.19,-1.01 0.57,-1.37 0.38,-0.36 0.82,-0.53 1.33,-0.53l9.36 0c0.56,0 1.01,0.18 1.37,0.53 0.36,0.36 0.53,0.81 0.53,1.37l0 2.89c1.37,-1.67 3.13,-3.02 5.29,-4.03 2.16,-1.01 4.63,-1.52 7.42,-1.52 2.89,0 5.47,0.66 7.72,1.98 2.26,1.32 4.03,3.27 5.33,5.86 1.29,2.59 1.94,5.71 1.94,9.36l0 21.23c0,0.51 -0.18,0.95 -0.53,1.33 -0.35,0.38 -0.81,0.57 -1.37,0.57l-10.12 0c-0.56,0 -1.03,-0.18 -1.41,-0.53 -0.38,-0.35 -0.57,-0.81 -0.57,-1.37l0 -20.77c0,-2.28 -0.55,-4.03 -1.64,-5.25 -1.09,-1.22 -2.68,-1.83 -4.75,-1.83 -2.03,0 -3.63,0.62 -4.79,1.86 -1.17,1.24 -1.75,2.98 -1.75,5.21l0 20.77c0,0.51 -0.18,0.95 -0.53,1.33 -0.35,0.38 -0.81,0.57 -1.37,0.57l-10.12 0z"/>
  <path class="fil1" d="M205.21 76.5c7.22,0 13.12,5.9 13.12,13.12 0,1.93 -0.42,3.76 -1.18,5.41 -0.45,0.99 -1.03,1.92 -1.7,2.77 -15.88,24.75 -43.64,41.15 -75.23,41.15 -31.67,0 -59.48,-16.48 -75.34,-41.33 -0.57,-0.74 -1.06,-1.53 -1.47,-2.38 -0.82,-1.71 -1.27,-3.61 -1.27,-5.62 0,-7.22 5.9,-13.12 13.12,-13.12 4.2,0 7.95,2 10.36,5.09 0.58,0.75 1.08,1.56 1.49,2.42 11.28,17.38 30.85,28.88 53.11,28.88 22.33,0 41.96,-11.57 53.22,-29.04 0.37,-0.74 0.8,-1.45 1.3,-2.11 2.4,-3.18 6.21,-5.24 10.47,-5.24zm8.7 103.78c13.43,0 24.69,-9.26 27.76,-21.74l0.66 -3.73 17.32 -98.23 5.37 -30.46 2.26 0 0.04 0c7.18,0 13.06,-5.88 13.06,-13.06 0,-6.41 -4.68,-11.78 -10.79,-12.86 -0.74,-0.13 -1.5,-0.2 -2.27,-0.2l-254.26 0c-0.76,0 -1.5,0.06 -2.22,0.19 -6.14,1.06 -10.84,6.44 -10.84,12.87 0,7.18 5.88,13.06 13.06,13.06l0.04 0 2.32 0 5.37 30.45 17.56 99.57 0.19 1.1c2.58,13.13 14.16,23.04 28.05,23.04l147.33 0zm-38.45 -106.12c9.27,0 16.78,-7.51 16.78,-16.78 0,-9.27 -7.51,-16.78 -16.78,-16.78 -9.27,0 -16.78,7.51 -16.78,16.78 0,9.27 7.51,16.78 16.78,16.78zm-70.54 0c9.27,0 16.78,-7.51 16.78,-16.78 0,-9.27 -7.51,-16.78 -16.78,-16.78 -9.27,0 -16.78,7.51 -16.78,16.78 0,9.27 7.51,16.78 16.78,16.78z"/>
 </g>
</svg>
