<?xml version="1.0" encoding="UTF-8"?>
<!DOCTYPE svg PUBLIC "-//W3C//DTD SVG 1.1//EN" "http://www.w3.org/Graphics/SVG/1.1/DTD/svg11.dtd">
<!-- Creator: CorelDRAW 2019 (64-Bit) -->
<svg xmlns="http://www.w3.org/2000/svg" xml:space="preserve" width="2.38435in" height="2.5065in" version="1.1" style="shape-rendering:geometricPrecision; text-rendering:geometricPrecision; image-rendering:optimizeQuality; fill-rule:evenodd; clip-rule:evenodd"
viewBox="0 0 108.05 113.59"
 xmlns:xlink="http://www.w3.org/1999/xlink"
 xmlns:xodm="http://www.corel.com/coreldraw/odm/2003">
 <defs>
  <style type="text/css">
   <![CDATA[
    .fil1 {fill:#E86317}
    .fil0 {fill:white;fill-rule:nonzero}
   ]]>
  </style>
 </defs>
 <g id="Layer_x0020_1">
  <metadata id="CorelCorpID_0Corel-Layer"/>
  <path class="fil0" d="M4.09 108.02c-0.2,0 -0.37,-0.07 -0.51,-0.22 -0.15,-0.15 -0.22,-0.32 -0.22,-0.51l0 -19.03c0,-0.21 0.07,-0.4 0.21,-0.54 0.14,-0.15 0.31,-0.22 0.53,-0.22l7.71 0c2.89,0 5.14,0.69 6.74,2.07 1.6,1.38 2.44,3.36 2.52,5.94 0.02,0.57 0.03,1.32 0.03,2.26 0,0.94 -0.01,1.68 -0.03,2.23 -0.2,5.36 -3.24,8.03 -9.12,8.03l-7.86 0zm7.71 -4.4c1.23,0 2.14,-0.29 2.73,-0.88 0.59,-0.59 0.9,-1.52 0.94,-2.81 0.04,-0.57 0.06,-1.3 0.06,-2.2 0,-0.9 -0.02,-1.62 -0.06,-2.17 -0.04,-1.25 -0.38,-2.17 -1.01,-2.77 -0.64,-0.6 -1.57,-0.89 -2.8,-0.89l-2.79 0 0 11.73 2.93 0z"/>
  <path class="fil0" d="M24.03 108.02c-0.2,0 -0.37,-0.07 -0.51,-0.22 -0.15,-0.15 -0.22,-0.32 -0.22,-0.51l0 -13.75c0,-0.21 0.07,-0.4 0.21,-0.54 0.14,-0.15 0.31,-0.22 0.53,-0.22l3.58 0c0.22,0 0.4,0.07 0.54,0.22 0.15,0.15 0.22,0.33 0.22,0.54l0 1.11c0.55,-0.61 1.19,-1.07 1.92,-1.39 0.73,-0.32 1.55,-0.48 2.45,-0.48l1.32 0c0.21,0 0.39,0.07 0.53,0.21 0.14,0.14 0.21,0.31 0.21,0.53l0 3.2c0,0.2 -0.07,0.37 -0.21,0.51 -0.14,0.15 -0.31,0.22 -0.53,0.22l-2.96 0c-0.78,0 -1.38,0.22 -1.8,0.65 -0.42,0.43 -0.63,1.04 -0.63,1.82l0 7.39c0,0.21 -0.07,0.39 -0.22,0.53 -0.15,0.14 -0.33,0.21 -0.54,0.21l-3.87 0z"/>
  <path class="fil0" d="M40.48 113.59c-0.18,0 -0.32,-0.06 -0.44,-0.18 -0.12,-0.12 -0.18,-0.26 -0.18,-0.44 0,-0.14 0.02,-0.26 0.06,-0.38l2.32 -5.51 -5.63 -13.31c-0.06,-0.16 -0.09,-0.26 -0.09,-0.32 0.04,-0.2 0.12,-0.36 0.25,-0.48 0.13,-0.13 0.28,-0.19 0.45,-0.19l3.49 0c0.41,0 0.69,0.21 0.85,0.62l3.25 8.33 3.34 -8.33c0.2,-0.41 0.49,-0.62 0.88,-0.62l3.46 0c0.18,0 0.33,0.06 0.45,0.19 0.13,0.13 0.19,0.27 0.19,0.43 0,0.14 -0.02,0.26 -0.06,0.38l-8.3 19.21c-0.2,0.41 -0.5,0.62 -0.91,0.62l-3.4 0z"/>
  <path class="fil0" d="M55.21 108.02c-0.2,0 -0.37,-0.07 -0.51,-0.22 -0.15,-0.15 -0.22,-0.32 -0.22,-0.51l0 -19.03c0,-0.21 0.07,-0.4 0.21,-0.54 0.14,-0.15 0.31,-0.22 0.53,-0.22l3.93 0c0.22,0 0.39,0.07 0.53,0.22 0.14,0.15 0.21,0.33 0.21,0.54l0 6.39 5.19 -6.57c0.22,-0.39 0.6,-0.59 1.14,-0.59l4.49 0c0.16,0 0.3,0.06 0.42,0.19 0.13,0.13 0.19,0.27 0.19,0.43 0,0.16 -0.04,0.27 -0.12,0.35l-6.83 8.85 7.39 9.73c0.08,0.08 0.12,0.2 0.12,0.35 0,0.16 -0.06,0.3 -0.19,0.43 -0.13,0.13 -0.28,0.19 -0.45,0.19l-4.6 0c-0.31,0 -0.57,-0.06 -0.76,-0.19 -0.2,-0.13 -0.33,-0.26 -0.41,-0.4l-5.57 -7.15 0 7.01c0,0.2 -0.07,0.37 -0.21,0.51 -0.14,0.15 -0.31,0.22 -0.53,0.22l-3.93 0z"/>
  <path class="fil0" d="M74.76 108.02c-0.22,0 -0.4,-0.07 -0.54,-0.21 -0.15,-0.14 -0.22,-0.31 -0.22,-0.53l0 -19.35c0,-0.21 0.07,-0.39 0.22,-0.53 0.15,-0.14 0.33,-0.21 0.54,-0.21l3.67 0c0.21,0 0.39,0.07 0.53,0.21 0.14,0.14 0.21,0.31 0.21,0.53l0 19.35c0,0.2 -0.07,0.37 -0.21,0.51 -0.14,0.15 -0.31,0.22 -0.53,0.22l-3.67 0z"/>
  <path class="fil0" d="M82.03 90.66c-0.22,0 -0.39,-0.07 -0.53,-0.22 -0.14,-0.15 -0.21,-0.33 -0.21,-0.54l0 -2.73c0,-0.21 0.07,-0.4 0.22,-0.54 0.15,-0.15 0.32,-0.22 0.51,-0.22l3.67 0c0.21,0 0.4,0.07 0.54,0.22 0.15,0.15 0.22,0.33 0.22,0.54l0 2.73c0,0.21 -0.07,0.4 -0.22,0.54 -0.15,0.15 -0.33,0.22 -0.54,0.22l-3.67 0zm0 17.36c-0.2,0 -0.37,-0.07 -0.51,-0.22 -0.15,-0.15 -0.22,-0.32 -0.22,-0.51l0 -13.78c0,-0.21 0.07,-0.39 0.22,-0.53 0.15,-0.14 0.32,-0.21 0.51,-0.21l3.67 0c0.21,0 0.4,0.07 0.54,0.21 0.15,0.14 0.22,0.31 0.22,0.53l0 13.78c0,0.21 -0.07,0.39 -0.22,0.53 -0.15,0.14 -0.33,0.21 -0.54,0.21l-3.67 0z"/>
  <path class="fil0" d="M89.33 108.02c-0.2,0 -0.37,-0.07 -0.51,-0.22 -0.15,-0.15 -0.22,-0.32 -0.22,-0.51l0 -13.78c0,-0.21 0.07,-0.39 0.22,-0.53 0.15,-0.14 0.32,-0.21 0.51,-0.21l3.61 0c0.22,0 0.39,0.07 0.53,0.21 0.14,0.14 0.21,0.31 0.21,0.53l0 1.11c0.53,-0.64 1.21,-1.16 2.04,-1.55 0.83,-0.39 1.78,-0.59 2.86,-0.59 1.11,0 2.11,0.25 2.98,0.76 0.87,0.51 1.55,1.26 2.05,2.26 0.5,1 0.75,2.2 0.75,3.61l0 8.18c0,0.2 -0.07,0.37 -0.21,0.51 -0.14,0.15 -0.31,0.22 -0.53,0.22l-3.9 0c-0.21,0 -0.4,-0.07 -0.54,-0.21 -0.15,-0.14 -0.22,-0.31 -0.22,-0.53l0 -8c0,-0.88 -0.21,-1.55 -0.63,-2.02 -0.42,-0.47 -1.03,-0.7 -1.83,-0.7 -0.78,0 -1.4,0.24 -1.85,0.72 -0.45,0.48 -0.67,1.15 -0.67,2.01l0 8c0,0.2 -0.07,0.37 -0.21,0.51 -0.14,0.15 -0.31,0.22 -0.53,0.22l-3.9 0z"/>
  <path class="fil1" d="M79.09 29.48c2.78,0 5.06,2.28 5.06,5.06 0,0.74 -0.16,1.45 -0.45,2.09 -0.17,0.38 -0.4,0.74 -0.66,1.07 -6.12,9.54 -16.82,15.86 -28.99,15.86 -12.2,0 -22.92,-6.35 -29.04,-15.93 -0.22,-0.28 -0.41,-0.59 -0.56,-0.92 -0.31,-0.66 -0.49,-1.39 -0.49,-2.17 0,-2.78 2.28,-5.06 5.06,-5.06 1.62,0 3.07,0.77 3.99,1.96 0.22,0.29 0.42,0.6 0.58,0.93 4.35,6.7 11.89,11.13 20.47,11.13 8.61,0 16.17,-4.46 20.51,-11.19 0.14,-0.29 0.31,-0.56 0.5,-0.81 0.92,-1.22 2.39,-2.02 4.04,-2.02zm3.35 39.99c5.17,0 9.52,-3.57 10.7,-8.38l0.25 -1.44 6.68 -37.86 2.07 -11.74 0.87 0 0.01 0c2.77,0 5.03,-2.26 5.03,-5.03 0,-2.47 -1.8,-4.54 -4.16,-4.96 -0.28,-0.05 -0.58,-0.08 -0.88,-0.08l-97.99 0c-0.29,0 -0.58,0.02 -0.85,0.07 -2.37,0.41 -4.18,2.48 -4.18,4.96 0,2.77 2.26,5.03 5.03,5.03l0.01 0 0.89 0 2.07 11.74 6.77 38.37 0.07 0.42c0.99,5.06 5.46,8.88 10.81,8.88l56.78 0zm-14.82 -40.9c3.57,0 6.47,-2.9 6.47,-6.47 0,-3.57 -2.9,-6.47 -6.47,-6.47 -3.57,0 -6.47,2.9 -6.47,6.47 0,3.57 2.9,6.47 6.47,6.47zm-27.18 0c3.57,0 6.47,-2.9 6.47,-6.47 0,-3.57 -2.9,-6.47 -6.47,-6.47 -3.57,0 -6.47,2.9 -6.47,6.47 0,3.57 2.9,6.47 6.47,6.47z"/>
 </g>
</svg>
