<?xml version="1.0" encoding="UTF-8"?>
<!DOCTYPE svg PUBLIC "-//W3C//DTD SVG 1.1//EN" "http://www.w3.org/Graphics/SVG/1.1/DTD/svg11.dtd">
<!-- Creator: CorelDRAW 2019 (64-Bit) -->
<svg xmlns="http://www.w3.org/2000/svg" xml:space="preserve" width="2.38435in" height="2.5065in" version="1.1" style="shape-rendering:geometricPrecision; text-rendering:geometricPrecision; image-rendering:optimizeQuality; fill-rule:evenodd; clip-rule:evenodd"
viewBox="0 0 82.66 86.9"
 xmlns:xlink="http://www.w3.org/1999/xlink"
 xmlns:xodm="http://www.corel.com/coreldraw/odm/2003">
 <defs>
  <style type="text/css">
   <![CDATA[
    .fil1 {fill:black}
    .fil0 {fill:black;fill-rule:nonzero}
   ]]>
  </style>
 </defs>
 <g id="Layer_x0020_1">
  <metadata id="CorelCorpID_0Corel-Layer"/>
  <path class="fil0" d="M3.3 82.64c-0.15,0 -0.28,-0.06 -0.39,-0.17 -0.11,-0.11 -0.17,-0.24 -0.17,-0.39l0 -14.56c0,-0.16 0.05,-0.3 0.16,-0.42 0.1,-0.11 0.24,-0.17 0.4,-0.17l5.9 0c2.21,0 3.93,0.53 5.16,1.58 1.23,1.05 1.87,2.57 1.93,4.54 0.02,0.43 0.02,1.01 0.02,1.73 0,0.72 -0.01,1.29 -0.02,1.7 -0.15,4.1 -2.47,6.15 -6.98,6.15l-6.01 0zm5.9 -3.36c0.94,0 1.64,-0.22 2.09,-0.67 0.45,-0.45 0.69,-1.17 0.72,-2.15 0.03,-0.43 0.04,-0.99 0.04,-1.68 0,-0.69 -0.02,-1.24 -0.04,-1.66 -0.03,-0.96 -0.29,-1.66 -0.77,-2.12 -0.49,-0.46 -1.2,-0.68 -2.14,-0.68l-2.13 0 0 8.97 2.24 0z"/>
  <path class="fil0" d="M18.55 82.64c-0.15,0 -0.28,-0.06 -0.39,-0.17 -0.11,-0.11 -0.17,-0.24 -0.17,-0.39l0 -10.52c0,-0.16 0.05,-0.3 0.16,-0.41 0.1,-0.11 0.24,-0.17 0.4,-0.17l2.74 0c0.16,0 0.3,0.06 0.41,0.17 0.11,0.11 0.17,0.25 0.17,0.41l0 0.85c0.42,-0.46 0.91,-0.82 1.47,-1.07 0.56,-0.25 1.19,-0.37 1.87,-0.37l1.01 0c0.16,0 0.3,0.05 0.4,0.16 0.1,0.1 0.16,0.24 0.16,0.4l0 2.45c0,0.15 -0.05,0.28 -0.16,0.39 -0.1,0.11 -0.24,0.17 -0.4,0.17l-2.27 0c-0.6,0 -1.06,0.16 -1.38,0.49 -0.32,0.33 -0.48,0.79 -0.48,1.39l0 5.65c0,0.16 -0.06,0.3 -0.17,0.4 -0.11,0.1 -0.25,0.16 -0.41,0.16l-2.96 0z"/>
  <path class="fil0" d="M31.14 86.9c-0.13,0 -0.25,-0.04 -0.34,-0.13 -0.09,-0.09 -0.13,-0.2 -0.13,-0.34 0,-0.1 0.02,-0.2 0.04,-0.29l1.77 -4.22 -4.31 -10.18c-0.04,-0.12 -0.07,-0.2 -0.07,-0.25 0.03,-0.15 0.09,-0.27 0.19,-0.37 0.1,-0.1 0.21,-0.15 0.35,-0.15l2.67 0c0.31,0 0.53,0.16 0.65,0.47l2.49 6.37 2.56 -6.37c0.15,-0.31 0.37,-0.47 0.67,-0.47l2.65 0c0.13,0 0.25,0.05 0.35,0.15 0.1,0.1 0.15,0.21 0.15,0.33 0,0.1 -0.02,0.2 -0.04,0.29l-6.35 14.69c-0.15,0.31 -0.38,0.47 -0.7,0.47l-2.6 0z"/>
  <path class="fil0" d="M42.4 82.64c-0.15,0 -0.28,-0.06 -0.39,-0.17 -0.11,-0.11 -0.17,-0.24 -0.17,-0.39l0 -14.56c0,-0.16 0.05,-0.3 0.16,-0.42 0.1,-0.11 0.24,-0.17 0.4,-0.17l3.01 0c0.16,0 0.3,0.06 0.4,0.17 0.1,0.11 0.16,0.25 0.16,0.42l0 4.89 3.97 -5.02c0.16,-0.3 0.46,-0.45 0.87,-0.45l3.43 0c0.12,0 0.23,0.05 0.33,0.15 0.1,0.1 0.15,0.21 0.15,0.33 0,0.12 -0.03,0.21 -0.09,0.27l-5.23 6.77 5.65 7.45c0.06,0.06 0.09,0.15 0.09,0.27 0,0.12 -0.05,0.23 -0.15,0.33 -0.1,0.1 -0.21,0.15 -0.35,0.15l-3.52 0c-0.24,0 -0.43,-0.05 -0.58,-0.15 -0.15,-0.1 -0.25,-0.2 -0.31,-0.3l-4.26 -5.47 0 5.36c0,0.15 -0.05,0.28 -0.16,0.39 -0.1,0.11 -0.24,0.17 -0.4,0.17l-3.01 0z"/>
  <path class="fil0" d="M57.36 82.64c-0.16,0 -0.3,-0.05 -0.42,-0.16 -0.11,-0.1 -0.17,-0.24 -0.17,-0.4l0 -14.8c0,-0.16 0.06,-0.3 0.17,-0.4 0.11,-0.1 0.25,-0.16 0.42,-0.16l2.8 0c0.16,0 0.3,0.05 0.4,0.16 0.1,0.1 0.16,0.24 0.16,0.4l0 14.8c0,0.15 -0.05,0.28 -0.16,0.39 -0.1,0.11 -0.24,0.17 -0.4,0.17l-2.8 0z"/>
  <path class="fil0" d="M62.92 69.36c-0.16,0 -0.3,-0.06 -0.4,-0.17 -0.1,-0.11 -0.16,-0.25 -0.16,-0.41l0 -2.09c0,-0.16 0.06,-0.3 0.17,-0.41 0.11,-0.11 0.24,-0.17 0.39,-0.17l2.8 0c0.16,0 0.3,0.06 0.41,0.17 0.11,0.11 0.17,0.25 0.17,0.41l0 2.09c0,0.16 -0.06,0.3 -0.17,0.41 -0.11,0.11 -0.25,0.17 -0.41,0.17l-2.8 0zm0 13.28c-0.15,0 -0.28,-0.06 -0.39,-0.17 -0.11,-0.11 -0.17,-0.24 -0.17,-0.39l0 -10.54c0,-0.16 0.06,-0.3 0.17,-0.4 0.11,-0.1 0.24,-0.16 0.39,-0.16l2.8 0c0.16,0 0.3,0.05 0.41,0.16 0.11,0.1 0.17,0.24 0.17,0.4l0 10.54c0,0.16 -0.06,0.3 -0.17,0.4 -0.11,0.1 -0.25,0.16 -0.41,0.16l-2.8 0z"/>
  <path class="fil0" d="M68.51 82.64c-0.15,0 -0.28,-0.06 -0.39,-0.17 -0.11,-0.11 -0.17,-0.24 -0.17,-0.39l0 -10.54c0,-0.16 0.06,-0.3 0.17,-0.4 0.11,-0.1 0.24,-0.16 0.39,-0.16l2.76 0c0.16,0 0.3,0.05 0.4,0.16 0.1,0.1 0.16,0.24 0.16,0.4l0 0.85c0.4,-0.49 0.92,-0.89 1.56,-1.19 0.64,-0.3 1.36,-0.45 2.19,-0.45 0.85,0 1.61,0.19 2.28,0.58 0.67,0.39 1.19,0.96 1.57,1.73 0.38,0.76 0.57,1.68 0.57,2.76l0 6.26c0,0.15 -0.05,0.28 -0.16,0.39 -0.1,0.11 -0.24,0.17 -0.4,0.17l-2.98 0c-0.16,0 -0.3,-0.05 -0.41,-0.16 -0.11,-0.1 -0.17,-0.24 -0.17,-0.4l0 -6.12c0,-0.67 -0.16,-1.19 -0.48,-1.55 -0.32,-0.36 -0.79,-0.54 -1.4,-0.54 -0.6,0 -1.07,0.18 -1.41,0.55 -0.34,0.37 -0.52,0.88 -0.52,1.54l0 6.12c0,0.15 -0.05,0.28 -0.16,0.39 -0.1,0.11 -0.24,0.17 -0.4,0.17l-2.98 0z"/>
  <path class="fil1" d="M60.5 22.56c2.13,0 3.87,1.74 3.87,3.87 0,0.57 -0.12,1.11 -0.35,1.6 -0.13,0.29 -0.3,0.57 -0.5,0.82 -4.68,7.3 -12.87,12.13 -22.18,12.13 -9.34,0 -17.54,-4.86 -22.21,-12.18 -0.17,-0.22 -0.31,-0.45 -0.43,-0.7 -0.24,-0.5 -0.38,-1.07 -0.38,-1.66 0,-2.13 1.74,-3.87 3.87,-3.87 1.24,0 2.34,0.59 3.05,1.5 0.17,0.22 0.32,0.46 0.44,0.71 3.32,5.12 9.1,8.51 15.66,8.51 6.58,0 12.37,-3.41 15.69,-8.56 0.11,-0.22 0.24,-0.43 0.38,-0.62 0.71,-0.94 1.83,-1.55 3.09,-1.55zm2.57 30.6c3.96,0 7.28,-2.73 8.18,-6.41l0.19 -1.1 5.11 -28.96 1.58 -8.98 0.67 0 0.01 0c2.12,0 3.85,-1.73 3.85,-3.85 0,-1.89 -1.38,-3.47 -3.18,-3.79 -0.22,-0.04 -0.44,-0.06 -0.67,-0.06l-74.96 0c-0.22,0 -0.44,0.02 -0.65,0.06 -1.81,0.31 -3.2,1.9 -3.2,3.79 0,2.12 1.73,3.85 3.85,3.85l0.01 0 0.68 0 1.58 8.98 5.18 29.36 0.06 0.32c0.76,3.87 4.17,6.79 8.27,6.79l43.44 0zm-11.34 -31.29c2.73,0 4.95,-2.21 4.95,-4.95 0,-2.73 -2.21,-4.95 -4.95,-4.95 -2.73,0 -4.95,2.21 -4.95,4.95 0,2.73 2.21,4.95 4.95,4.95zm-20.8 0c2.73,0 4.95,-2.21 4.95,-4.95 0,-2.73 -2.21,-4.95 -4.95,-4.95 -2.73,0 -4.95,2.21 -4.95,4.95 0,2.73 2.21,4.95 4.95,4.95z"/>
 </g>
</svg>
