<?xml version="1.0" encoding="UTF-8"?>
<!DOCTYPE svg PUBLIC "-//W3C//DTD SVG 1.1//EN" "http://www.w3.org/Graphics/SVG/1.1/DTD/svg11.dtd">
<!-- Creator: CorelDRAW 2019 (64-Bit) -->
<svg xmlns="http://www.w3.org/2000/svg" xml:space="preserve" width="4.59913in" height="0.958709in" version="1.1" style="shape-rendering:geometricPrecision; text-rendering:geometricPrecision; image-rendering:optimizeQuality; fill-rule:evenodd; clip-rule:evenodd"
viewBox="0 0 1172.22 244.36"
 xmlns:xlink="http://www.w3.org/1999/xlink"
 xmlns:xodm="http://www.corel.com/coreldraw/odm/2003">
 <defs>
  <style type="text/css">
   <![CDATA[
    .fil1 {fill:#E86317}
    .fil0 {fill:black;fill-rule:nonzero}
   ]]>
  </style>
 </defs>
 <g id="Layer_x0020_1">
  <metadata id="CorelCorpID_0Corel-Layer"/>
  <path class="fil0" d="M402.89 201.6c-1.5,0 -2.81,-0.56 -3.94,-1.69 -1.12,-1.12 -1.69,-2.44 -1.69,-3.94l0 -146.03c0,-1.65 0.52,-3.04 1.58,-4.16 1.05,-1.12 2.4,-1.69 4.05,-1.69l59.18 0c22.2,0 39.45,5.29 51.75,15.86 12.3,10.58 18.75,25.76 19.35,45.57 0.15,4.35 0.22,10.12 0.22,17.33 0,7.2 -0.08,12.9 -0.22,17.1 -1.5,41.1 -24.83,61.65 -69.98,61.65l-60.31 0zm59.18 -33.75c9.45,0 16.43,-2.25 20.93,-6.75 4.5,-4.5 6.9,-11.7 7.2,-21.6 0.3,-4.35 0.45,-9.98 0.45,-16.88 0,-6.9 -0.15,-12.45 -0.45,-16.65 -0.3,-9.6 -2.89,-16.69 -7.76,-21.26 -4.87,-4.57 -12.04,-6.86 -21.49,-6.86l-21.37 0 0 90.01 22.5 0z"/>
  <path class="fil0" d="M555.94 201.6c-1.5,0 -2.81,-0.56 -3.94,-1.69 -1.12,-1.12 -1.69,-2.44 -1.69,-3.94l0 -105.53c0,-1.65 0.53,-3.04 1.58,-4.16 1.05,-1.12 2.4,-1.69 4.05,-1.69l27.45 0c1.65,0 3.04,0.56 4.16,1.69 1.13,1.13 1.69,2.51 1.69,4.16l0 8.55c4.2,-4.65 9.11,-8.21 14.74,-10.69 5.62,-2.47 11.89,-3.71 18.79,-3.71l10.13 0c1.65,0 3,0.52 4.05,1.58 1.05,1.05 1.58,2.4 1.58,4.05l0 24.53c0,1.5 -0.52,2.81 -1.58,3.94 -1.05,1.13 -2.4,1.69 -4.05,1.69l-22.73 0c-6,0 -10.61,1.65 -13.84,4.95 -3.23,3.3 -4.84,7.95 -4.84,13.95l0 56.7c0,1.65 -0.56,3 -1.69,4.05 -1.12,1.05 -2.51,1.58 -4.16,1.58l-29.7 0z"/>
  <path class="fil0" d="M682.18 244.36c-1.35,0 -2.47,-0.45 -3.37,-1.35 -0.9,-0.9 -1.35,-2.02 -1.35,-3.37 0,-1.05 0.15,-2.02 0.45,-2.93l17.78 -42.3 -43.2 -102.16c-0.45,-1.2 -0.67,-2.02 -0.67,-2.47 0.3,-1.5 0.94,-2.74 1.91,-3.71 0.98,-0.97 2.14,-1.46 3.49,-1.46l26.78 0c3.15,0 5.32,1.58 6.52,4.73l24.98 63.9 25.65 -63.9c1.5,-3.15 3.75,-4.73 6.75,-4.73l26.55 0c1.35,0 2.51,0.49 3.49,1.46 0.97,0.98 1.46,2.06 1.46,3.26 0,1.05 -0.15,2.02 -0.45,2.92l-63.68 147.38c-1.5,3.15 -3.83,4.73 -6.98,4.73l-26.1 0z"/>
  <path class="fil0" d="M795.16 201.6c-1.5,0 -2.81,-0.56 -3.94,-1.69 -1.12,-1.12 -1.69,-2.44 -1.69,-3.94l0 -146.03c0,-1.65 0.52,-3.04 1.58,-4.16 1.05,-1.12 2.4,-1.69 4.05,-1.69l30.15 0c1.65,0 3,0.56 4.05,1.69 1.05,1.13 1.57,2.51 1.57,4.16l0 49.05 39.83 -50.4c1.65,-3 4.58,-4.5 8.78,-4.5l34.43 0c1.2,0 2.29,0.49 3.26,1.46 0.97,0.98 1.46,2.06 1.46,3.26 0,1.2 -0.3,2.1 -0.9,2.7l-52.43 67.95 56.7 74.7c0.6,0.6 0.9,1.5 0.9,2.7 0,1.2 -0.49,2.29 -1.46,3.26 -0.97,0.98 -2.14,1.46 -3.49,1.46l-35.33 0c-2.4,0 -4.35,-0.49 -5.85,-1.46 -1.5,-0.98 -2.55,-1.99 -3.15,-3.04l-42.75 -54.9 0 53.78c0,1.5 -0.53,2.81 -1.57,3.94 -1.05,1.12 -2.4,1.69 -4.05,1.69l-30.15 0z"/>
  <path class="fil0" d="M945.22 201.6c-1.65,0 -3.04,-0.53 -4.16,-1.58 -1.12,-1.05 -1.69,-2.4 -1.69,-4.05l0 -148.51c0,-1.65 0.56,-3 1.69,-4.05 1.12,-1.05 2.51,-1.58 4.16,-1.58l28.13 0c1.65,0 3,0.53 4.05,1.58 1.05,1.05 1.57,2.4 1.57,4.05l0 148.51c0,1.5 -0.52,2.81 -1.57,3.94 -1.05,1.12 -2.4,1.69 -4.05,1.69l-28.13 0z"/>
  <path class="fil0" d="M1001.01 68.39c-1.65,0 -3,-0.56 -4.05,-1.69 -1.05,-1.12 -1.58,-2.51 -1.58,-4.16l0 -20.93c0,-1.65 0.56,-3.04 1.69,-4.16 1.12,-1.13 2.44,-1.69 3.94,-1.69l28.13 0c1.65,0 3.04,0.56 4.16,1.69 1.12,1.13 1.69,2.51 1.69,4.16l0 20.93c0,1.65 -0.56,3.04 -1.69,4.16 -1.13,1.12 -2.51,1.69 -4.16,1.69l-28.13 0zm0 133.21c-1.5,0 -2.81,-0.56 -3.94,-1.69 -1.13,-1.12 -1.69,-2.44 -1.69,-3.94l0 -105.76c0,-1.65 0.56,-3 1.69,-4.05 1.12,-1.05 2.44,-1.58 3.94,-1.58l28.13 0c1.65,0 3.04,0.52 4.16,1.58 1.12,1.05 1.69,2.4 1.69,4.05l0 105.76c0,1.65 -0.56,3 -1.69,4.05 -1.13,1.05 -2.51,1.58 -4.16,1.58l-28.13 0z"/>
  <path class="fil0" d="M1057.02 201.6c-1.5,0 -2.81,-0.56 -3.94,-1.69 -1.12,-1.12 -1.69,-2.44 -1.69,-3.94l0 -105.76c0,-1.65 0.56,-3 1.69,-4.05 1.12,-1.05 2.44,-1.58 3.94,-1.58l27.68 0c1.65,0 3,0.52 4.05,1.58 1.05,1.05 1.57,2.4 1.57,4.05l0 8.55c4.05,-4.95 9.26,-8.93 15.64,-11.93 6.38,-3 13.69,-4.5 21.94,-4.5 8.55,0 16.16,1.95 22.84,5.85 6.68,3.9 11.93,9.68 15.75,17.33 3.82,7.65 5.74,16.88 5.74,27.68l0 62.78c0,1.5 -0.52,2.81 -1.57,3.94 -1.05,1.12 -2.4,1.69 -4.05,1.69l-29.93 0c-1.65,0 -3.04,-0.53 -4.16,-1.58 -1.12,-1.05 -1.69,-2.4 -1.69,-4.05l0 -61.43c0,-6.75 -1.61,-11.93 -4.84,-15.52 -3.23,-3.6 -7.91,-5.4 -14.06,-5.4 -6,0 -10.73,1.84 -14.17,5.51 -3.45,3.68 -5.18,8.81 -5.18,15.41l0 61.43c0,1.5 -0.52,2.81 -1.58,3.94 -1.05,1.12 -2.4,1.69 -4.05,1.69l-29.93 0z"/>
  <path class="fil1" d="M247.27 92.19c8.69,0 15.81,7.11 15.81,15.81 0,2.32 -0.51,4.53 -1.42,6.52 -0.55,1.2 -1.24,2.32 -2.05,3.33 -19.14,29.82 -52.58,49.58 -90.65,49.58 -38.16,0 -71.68,-19.86 -90.79,-49.8 -0.69,-0.89 -1.28,-1.85 -1.77,-2.86 -0.98,-2.06 -1.53,-4.35 -1.53,-6.77 0,-8.69 7.11,-15.81 15.81,-15.81 5.06,0 9.58,2.41 12.48,6.14 0.7,0.9 1.31,1.88 1.8,2.92 13.59,20.94 37.17,34.8 64,34.8 26.91,0 50.56,-13.94 64.13,-35 0.44,-0.9 0.97,-1.75 1.57,-2.54 2.89,-3.83 7.48,-6.31 12.62,-6.31zm10.48 125.05c16.18,0 29.75,-11.15 33.45,-26.19l0.79 -4.5 20.87 -118.37 6.47 -36.71 2.73 0 0.04 0c8.65,0 15.74,-7.08 15.74,-15.74 0,-7.72 -5.64,-14.19 -13,-15.5 -0.89,-0.16 -1.8,-0.24 -2.74,-0.24l-306.38 0c-0.91,0 -1.8,0.08 -2.67,0.23 -7.39,1.28 -13.07,7.76 -13.07,15.51 0,8.65 7.08,15.74 15.74,15.74l0.05 0 2.79 0 6.47 36.7 21.15 119.98 0.23 1.32c3.11,15.83 17.06,27.76 33.8,27.76l177.52 0zm-46.33 -127.87c11.17,0 20.22,-9.05 20.22,-20.22 0,-11.17 -9.05,-20.22 -20.22,-20.22 -11.17,0 -20.22,9.05 -20.22,20.22 0,11.17 9.05,20.22 20.22,20.22zm-84.99 0c11.17,0 20.22,-9.05 20.22,-20.22 0,-11.17 -9.05,-20.22 -20.22,-20.22 -11.17,0 -20.22,9.05 -20.22,20.22 0,11.17 9.05,20.22 20.22,20.22z"/>
 </g>
</svg>
