<?xml version="1.0" encoding="UTF-8"?>
<!DOCTYPE svg PUBLIC "-//W3C//DTD SVG 1.1//EN" "http://www.w3.org/Graphics/SVG/1.1/DTD/svg11.dtd">
<!-- Creator: CorelDRAW 2019 (64-Bit) -->
<svg xmlns="http://www.w3.org/2000/svg" xml:space="preserve" width="4.60098in" height="0.958709in" version="1.1" style="shape-rendering:geometricPrecision; text-rendering:geometricPrecision; image-rendering:optimizeQuality; fill-rule:evenodd; clip-rule:evenodd"
viewBox="0 0 618.58 128.89"
 xmlns:xlink="http://www.w3.org/1999/xlink"
 xmlns:xodm="http://www.corel.com/coreldraw/odm/2003">
 <defs>
  <style type="text/css">
   <![CDATA[
    .fil1 {fill:white}
    .fil0 {fill:white;fill-rule:nonzero}
   ]]>
  </style>
 </defs>
 <g id="Layer_x0020_1">
  <metadata id="CorelCorpID_0Corel-Layer"/>
  <path class="fil0" d="M212.77 106.34c-0.79,0 -1.48,-0.3 -2.08,-0.89 -0.59,-0.59 -0.89,-1.29 -0.89,-2.08l0 -77.03c0,-0.87 0.28,-1.6 0.83,-2.2 0.55,-0.59 1.27,-0.89 2.14,-0.89l31.22 0c11.71,0 20.81,2.79 27.3,8.37 6.49,5.58 9.89,13.59 10.21,24.04 0.08,2.29 0.12,5.34 0.12,9.14 0,3.8 -0.04,6.8 -0.12,9.02 -0.79,21.68 -13.1,32.52 -36.91,32.52l-31.81 0zm31.22 -17.8c4.99,0 8.66,-1.19 11.04,-3.56 2.37,-2.37 3.64,-6.17 3.8,-11.39 0.16,-2.3 0.24,-5.26 0.24,-8.9 0,-3.64 -0.08,-6.57 -0.24,-8.78 -0.16,-5.06 -1.52,-8.8 -4.1,-11.22 -2.57,-2.41 -6.35,-3.62 -11.34,-3.62l-11.27 0 0 47.48 11.87 0z"/>
  <path class="fil0" d="M293.5 106.34c-0.79,0 -1.48,-0.3 -2.08,-0.89 -0.59,-0.59 -0.89,-1.29 -0.89,-2.08l0 -55.67c0,-0.87 0.28,-1.6 0.83,-2.2 0.55,-0.59 1.27,-0.89 2.14,-0.89l14.48 0c0.87,0 1.6,0.3 2.2,0.89 0.59,0.59 0.89,1.33 0.89,2.2l0 4.51c2.22,-2.45 4.81,-4.33 7.77,-5.64 2.97,-1.31 6.27,-1.96 9.91,-1.96l5.34 0c0.87,0 1.58,0.28 2.14,0.83 0.55,0.55 0.83,1.27 0.83,2.14l0 12.94c0,0.79 -0.28,1.48 -0.83,2.08 -0.55,0.59 -1.27,0.89 -2.14,0.89l-11.99 0c-3.16,0 -5.6,0.87 -7.3,2.61 -1.7,1.74 -2.55,4.19 -2.55,7.36l0 29.91c0,0.87 -0.3,1.58 -0.89,2.14 -0.59,0.55 -1.33,0.83 -2.2,0.83l-15.67 0z"/>
  <path class="fil0" d="M360.09 128.89c-0.71,0 -1.31,-0.24 -1.78,-0.71 -0.48,-0.47 -0.71,-1.07 -0.71,-1.78 0,-0.55 0.08,-1.07 0.24,-1.54l9.38 -22.31 -22.79 -53.89c-0.24,-0.63 -0.36,-1.07 -0.36,-1.31 0.16,-0.79 0.49,-1.44 1.01,-1.96 0.51,-0.51 1.13,-0.77 1.84,-0.77l14.12 0c1.66,0 2.81,0.83 3.44,2.49l13.18 33.71 13.53 -33.71c0.79,-1.66 1.98,-2.49 3.56,-2.49l14.01 0c0.71,0 1.33,0.26 1.84,0.77 0.51,0.51 0.77,1.09 0.77,1.72 0,0.55 -0.08,1.07 -0.24,1.54l-33.59 77.74c-0.79,1.66 -2.02,2.49 -3.68,2.49l-13.77 0z"/>
  <path class="fil0" d="M419.68 106.34c-0.79,0 -1.48,-0.3 -2.08,-0.89 -0.59,-0.59 -0.89,-1.29 -0.89,-2.08l0 -77.03c0,-0.87 0.28,-1.6 0.83,-2.2 0.55,-0.59 1.27,-0.89 2.14,-0.89l15.9 0c0.87,0 1.58,0.3 2.14,0.89 0.55,0.59 0.83,1.33 0.83,2.2l0 25.87 21.01 -26.59c0.87,-1.58 2.41,-2.37 4.63,-2.37l18.16 0c0.63,0 1.21,0.26 1.72,0.77 0.51,0.51 0.77,1.09 0.77,1.72 0,0.63 -0.16,1.11 -0.48,1.42l-27.65 35.84 29.91 39.41c0.32,0.32 0.48,0.79 0.48,1.42 0,0.63 -0.26,1.21 -0.77,1.72 -0.51,0.51 -1.13,0.77 -1.84,0.77l-18.63 0c-1.27,0 -2.29,-0.26 -3.09,-0.77 -0.79,-0.51 -1.34,-1.05 -1.66,-1.6l-22.55 -28.96 0 28.37c0,0.79 -0.28,1.48 -0.83,2.08 -0.55,0.59 -1.27,0.89 -2.14,0.89l-15.9 0z"/>
  <path class="fil0" d="M498.84 106.34c-0.87,0 -1.6,-0.28 -2.2,-0.83 -0.59,-0.55 -0.89,-1.27 -0.89,-2.14l0 -78.34c0,-0.87 0.3,-1.58 0.89,-2.14 0.59,-0.55 1.32,-0.83 2.2,-0.83l14.84 0c0.87,0 1.58,0.28 2.14,0.83 0.55,0.55 0.83,1.27 0.83,2.14l0 78.34c0,0.79 -0.28,1.48 -0.83,2.08 -0.55,0.59 -1.27,0.89 -2.14,0.89l-14.84 0z"/>
  <path class="fil0" d="M528.27 36.08c-0.87,0 -1.58,-0.3 -2.14,-0.89 -0.55,-0.59 -0.83,-1.33 -0.83,-2.2l0 -11.04c0,-0.87 0.3,-1.6 0.89,-2.2 0.59,-0.59 1.29,-0.89 2.08,-0.89l14.84 0c0.87,0 1.6,0.3 2.2,0.89 0.59,0.59 0.89,1.33 0.89,2.2l0 11.04c0,0.87 -0.3,1.6 -0.89,2.2 -0.59,0.59 -1.33,0.89 -2.2,0.89l-14.84 0zm0 70.27c-0.79,0 -1.48,-0.3 -2.08,-0.89 -0.59,-0.59 -0.89,-1.29 -0.89,-2.08l0 -55.78c0,-0.87 0.3,-1.58 0.89,-2.14 0.59,-0.55 1.29,-0.83 2.08,-0.83l14.84 0c0.87,0 1.6,0.28 2.2,0.83 0.59,0.55 0.89,1.27 0.89,2.14l0 55.78c0,0.87 -0.3,1.58 -0.89,2.14 -0.59,0.55 -1.33,0.83 -2.2,0.83l-14.84 0z"/>
  <path class="fil0" d="M557.81 106.34c-0.79,0 -1.48,-0.3 -2.08,-0.89 -0.59,-0.59 -0.89,-1.29 -0.89,-2.08l0 -55.78c0,-0.87 0.3,-1.58 0.89,-2.14 0.59,-0.55 1.29,-0.83 2.08,-0.83l14.6 0c0.87,0 1.58,0.28 2.14,0.83 0.55,0.55 0.83,1.27 0.83,2.14l0 4.51c2.14,-2.61 4.89,-4.71 8.25,-6.29 3.36,-1.58 7.22,-2.37 11.57,-2.37 4.51,0 8.53,1.03 12.05,3.09 3.52,2.06 6.29,5.1 8.31,9.14 2.02,4.04 3.03,8.9 3.03,14.6l0 33.11c0,0.79 -0.28,1.48 -0.83,2.08 -0.55,0.59 -1.27,0.89 -2.14,0.89l-15.79 0c-0.87,0 -1.6,-0.28 -2.2,-0.83 -0.59,-0.55 -0.89,-1.27 -0.89,-2.14l0 -32.4c0,-3.56 -0.85,-6.29 -2.55,-8.19 -1.7,-1.9 -4.17,-2.85 -7.42,-2.85 -3.17,0 -5.66,0.97 -7.48,2.91 -1.82,1.94 -2.73,4.65 -2.73,8.13l0 32.4c0,0.79 -0.28,1.48 -0.83,2.08 -0.55,0.59 -1.27,0.89 -2.14,0.89l-15.79 0z"/>
  <path class="fil1" d="M130.43 48.63c4.59,0 8.34,3.75 8.34,8.34 0,1.22 -0.27,2.39 -0.75,3.44 -0.29,0.63 -0.65,1.22 -1.08,1.76 -10.09,15.73 -27.74,26.15 -47.82,26.15 -20.13,0 -37.81,-10.47 -47.89,-26.27 -0.36,-0.47 -0.67,-0.97 -0.93,-1.51 -0.52,-1.08 -0.81,-2.3 -0.81,-3.57 0,-4.59 3.75,-8.34 8.34,-8.34 2.67,0 5.06,1.27 6.58,3.24 0.37,0.48 0.69,0.99 0.95,1.54 7.17,11.05 19.61,18.36 33.76,18.36 14.19,0 26.67,-7.35 33.83,-18.46 0.23,-0.47 0.51,-0.92 0.83,-1.34 1.53,-2.02 3.94,-3.33 6.66,-3.33zm5.53 65.96c8.53,0 15.69,-5.88 17.65,-13.82l0.42 -2.37 11.01 -62.44 3.41 -19.36 1.44 0 0.02 0c4.57,0 8.3,-3.73 8.3,-8.3 0,-4.07 -2.97,-7.49 -6.86,-8.17 -0.47,-0.08 -0.95,-0.13 -1.44,-0.13l-161.61 0c-0.48,0 -0.95,0.04 -1.41,0.12 -3.9,0.67 -6.89,4.09 -6.89,8.18 0,4.57 3.74,8.3 8.3,8.3l0.02 0 1.47 0 3.41 19.36 11.16 63.29 0.12 0.7c1.64,8.35 9,14.64 17.83,14.64l93.64 0zm-24.44 -67.45c5.89,0 10.66,-4.77 10.66,-10.66 0,-5.89 -4.77,-10.66 -10.66,-10.66 -5.89,0 -10.66,4.77 -10.66,10.66 0,5.89 4.77,10.66 10.66,10.66zm-44.83 0c5.89,0 10.66,-4.77 10.66,-10.66 0,-5.89 -4.77,-10.66 -10.66,-10.66 -5.89,0 -10.66,4.77 -10.66,10.66 0,5.89 4.77,10.66 10.66,10.66z"/>
 </g>
</svg>
