<?xml version="1.0" encoding="UTF-8"?>
<!DOCTYPE svg PUBLIC "-//W3C//DTD SVG 1.1//EN" "http://www.w3.org/Graphics/SVG/1.1/DTD/svg11.dtd">
<!-- Creator: CorelDRAW 2019 (64-Bit) -->
<svg xmlns="http://www.w3.org/2000/svg" xml:space="preserve" width="3.7445in" height="2.50731in" version="1.1" style="shape-rendering:geometricPrecision; text-rendering:geometricPrecision; image-rendering:optimizeQuality; fill-rule:evenodd; clip-rule:evenodd"
viewBox="0 0 741.23 496.32"
 xmlns:xlink="http://www.w3.org/1999/xlink"
 xmlns:xodm="http://www.corel.com/coreldraw/odm/2003">
 <defs>
  <style type="text/css">
   <![CDATA[
    .fil1 {fill:white}
    .fil0 {fill:white;fill-rule:nonzero}
   ]]>
  </style>
 </defs>
 <g id="Layer_x0020_1">
  <metadata id="CorelCorpID_0Corel-Layer"/>
  <path class="fil0" d="M3.2 471.99c-0.85,0 -1.6,-0.32 -2.24,-0.96 -0.64,-0.64 -0.96,-1.39 -0.96,-2.24l0 -83.12c0,-0.94 0.3,-1.73 0.9,-2.37 0.6,-0.64 1.37,-0.96 2.3,-0.96l33.68 0c12.64,0 22.46,3.01 29.46,9.03 7,6.02 10.67,14.66 11.01,25.94 0.09,2.48 0.13,5.76 0.13,9.86 0,4.1 -0.04,7.34 -0.13,9.73 -0.85,23.4 -14.13,35.09 -39.83,35.09l-34.32 0zm33.68 -19.21c5.38,0 9.35,-1.28 11.91,-3.84 2.56,-2.56 3.93,-6.66 4.1,-12.29 0.17,-2.48 0.26,-5.68 0.26,-9.61 0,-3.93 -0.09,-7.09 -0.26,-9.48 -0.17,-5.47 -1.64,-9.5 -4.42,-12.1 -2.77,-2.6 -6.85,-3.91 -12.23,-3.91l-12.17 0 0 51.23 12.81 0z"/>
  <path class="fil0" d="M90.32 471.99c-0.85,0 -1.6,-0.32 -2.24,-0.96 -0.64,-0.64 -0.96,-1.39 -0.96,-2.24l0 -60.07c0,-0.94 0.3,-1.73 0.9,-2.37 0.6,-0.64 1.37,-0.96 2.31,-0.96l15.62 0c0.94,0 1.73,0.32 2.37,0.96 0.64,0.64 0.96,1.43 0.96,2.37l0 4.87c2.39,-2.65 5.19,-4.68 8.39,-6.08 3.2,-1.41 6.77,-2.11 10.69,-2.11l5.76 0c0.94,0 1.71,0.3 2.31,0.9 0.6,0.6 0.9,1.37 0.9,2.31l0 13.96c0,0.85 -0.3,1.6 -0.9,2.24 -0.6,0.64 -1.37,0.96 -2.31,0.96l-12.94 0c-3.41,0 -6.04,0.94 -7.88,2.82 -1.84,1.88 -2.75,4.52 -2.75,7.94l0 32.28c0,0.94 -0.32,1.71 -0.96,2.31 -0.64,0.6 -1.43,0.9 -2.37,0.9l-16.91 0z"/>
  <path class="fil0" d="M162.17 496.32c-0.77,0 -1.41,-0.26 -1.92,-0.77 -0.51,-0.51 -0.77,-1.15 -0.77,-1.92 0,-0.6 0.09,-1.15 0.26,-1.67l10.12 -24.08 -24.59 -58.15c-0.26,-0.68 -0.38,-1.15 -0.38,-1.41 0.17,-0.85 0.53,-1.56 1.09,-2.11 0.55,-0.56 1.22,-0.83 1.98,-0.83l15.24 0c1.79,0 3.03,0.9 3.71,2.69l14.22 36.37 14.6 -36.37c0.85,-1.79 2.13,-2.69 3.84,-2.69l15.11 0c0.77,0 1.43,0.28 1.99,0.83 0.55,0.55 0.83,1.17 0.83,1.86 0,0.6 -0.09,1.15 -0.26,1.66l-36.25 83.89c-0.85,1.79 -2.18,2.69 -3.97,2.69l-14.86 0z"/>
  <path class="fil0" d="M226.48 471.99c-0.85,0 -1.6,-0.32 -2.24,-0.96 -0.64,-0.64 -0.96,-1.39 -0.96,-2.24l0 -83.12c0,-0.94 0.3,-1.73 0.9,-2.37 0.6,-0.64 1.37,-0.96 2.3,-0.96l17.16 0c0.94,0 1.71,0.32 2.31,0.96 0.6,0.64 0.9,1.43 0.9,2.37l0 27.92 22.67 -28.69c0.94,-1.71 2.6,-2.56 4.99,-2.56l19.6 0c0.68,0 1.3,0.28 1.86,0.83 0.55,0.55 0.83,1.17 0.83,1.86 0,0.68 -0.17,1.2 -0.51,1.54l-29.84 38.68 32.28 42.52c0.34,0.34 0.51,0.85 0.51,1.54 0,0.68 -0.28,1.3 -0.83,1.86 -0.55,0.55 -1.22,0.83 -1.99,0.83l-20.11 0c-1.37,0 -2.48,-0.28 -3.33,-0.83 -0.85,-0.55 -1.45,-1.13 -1.79,-1.73l-24.33 -31.25 0 30.61c0,0.85 -0.3,1.6 -0.9,2.24 -0.6,0.64 -1.37,0.96 -2.31,0.96l-17.16 0z"/>
  <path class="fil0" d="M311.89 471.99c-0.94,0 -1.73,-0.3 -2.37,-0.9 -0.64,-0.6 -0.96,-1.37 -0.96,-2.31l0 -84.53c0,-0.94 0.32,-1.71 0.96,-2.31 0.64,-0.6 1.43,-0.9 2.37,-0.9l16.01 0c0.94,0 1.71,0.3 2.31,0.9 0.6,0.6 0.9,1.37 0.9,2.31l0 84.53c0,0.85 -0.3,1.6 -0.9,2.24 -0.6,0.64 -1.37,0.96 -2.31,0.96l-16.01 0z"/>
  <path class="fil0" d="M343.65 396.17c-0.94,0 -1.71,-0.32 -2.31,-0.96 -0.6,-0.64 -0.9,-1.43 -0.9,-2.37l0 -11.91c0,-0.94 0.32,-1.73 0.96,-2.37 0.64,-0.64 1.39,-0.96 2.24,-0.96l16.01 0c0.94,0 1.73,0.32 2.37,0.96 0.64,0.64 0.96,1.43 0.96,2.37l0 11.91c0,0.94 -0.32,1.73 -0.96,2.37 -0.64,0.64 -1.43,0.96 -2.37,0.96l-16.01 0zm0 75.82c-0.85,0 -1.6,-0.32 -2.24,-0.96 -0.64,-0.64 -0.96,-1.39 -0.96,-2.24l0 -60.2c0,-0.94 0.32,-1.71 0.96,-2.31 0.64,-0.6 1.39,-0.9 2.24,-0.9l16.01 0c0.94,0 1.73,0.3 2.37,0.9 0.64,0.6 0.96,1.37 0.96,2.31l0 60.2c0,0.94 -0.32,1.71 -0.96,2.31 -0.64,0.6 -1.43,0.9 -2.37,0.9l-16.01 0z"/>
  <path class="fil0" d="M375.53 471.99c-0.85,0 -1.6,-0.32 -2.24,-0.96 -0.64,-0.64 -0.96,-1.39 -0.96,-2.24l0 -60.2c0,-0.94 0.32,-1.71 0.96,-2.31 0.64,-0.6 1.39,-0.9 2.24,-0.9l15.75 0c0.94,0 1.71,0.3 2.31,0.9 0.6,0.6 0.9,1.37 0.9,2.31l0 4.87c2.3,-2.82 5.27,-5.08 8.9,-6.79 3.63,-1.71 7.79,-2.56 12.49,-2.56 4.87,0 9.2,1.11 13,3.33 3.8,2.22 6.79,5.51 8.97,9.86 2.18,4.35 3.27,9.61 3.27,15.75l0 35.73c0,0.85 -0.3,1.6 -0.9,2.24 -0.6,0.64 -1.37,0.96 -2.31,0.96l-17.03 0c-0.94,0 -1.73,-0.3 -2.37,-0.9 -0.64,-0.6 -0.96,-1.37 -0.96,-2.31l0 -34.96c0,-3.84 -0.92,-6.79 -2.75,-8.84 -1.84,-2.05 -4.5,-3.07 -8,-3.07 -3.42,0 -6.11,1.05 -8.07,3.14 -1.96,2.09 -2.95,5.02 -2.95,8.77l0 34.96c0,0.85 -0.3,1.6 -0.9,2.24 -0.6,0.64 -1.37,0.96 -2.3,0.96l-17.03 0z"/>
  <path class="fil0" d="M453.77 471.99c-0.94,0 -1.73,-0.3 -2.37,-0.9 -0.64,-0.6 -0.96,-1.37 -0.96,-2.31l0 -16.91c0,-0.94 0.32,-1.73 0.96,-2.37 0.64,-0.64 1.43,-0.96 2.37,-0.96l16.91 0c0.94,0 1.71,0.32 2.31,0.96 0.6,0.64 0.9,1.43 0.9,2.37l0 16.91c0,0.85 -0.3,1.6 -0.9,2.24 -0.6,0.64 -1.37,0.96 -2.31,0.96l-16.91 0z"/>
  <path class="fil0" d="M516.42 473.27c-9.73,0 -17.61,-2.58 -23.63,-7.75 -6.02,-5.17 -9.24,-12.36 -9.67,-21.58l-0.13 -5.12 0.13 -5.25c0.34,-9.22 3.54,-16.44 9.61,-21.64 6.06,-5.21 13.96,-7.81 23.69,-7.81 7.43,0 13.66,1.32 18.7,3.97 5.04,2.65 8.79,5.78 11.27,9.41 2.48,3.63 3.8,6.94 3.97,9.93 0.08,0.94 -0.21,1.73 -0.9,2.37 -0.68,0.64 -1.49,0.96 -2.43,0.96l-17.16 0c-0.94,0 -1.66,-0.21 -2.18,-0.64 -0.51,-0.43 -0.98,-1.11 -1.41,-2.05 -0.94,-2.39 -2.16,-4.14 -3.65,-5.25 -1.49,-1.11 -3.39,-1.67 -5.7,-1.67 -6.57,0 -9.99,4.35 -10.25,13.06l-0.13 4.87 0.13 4.23c0.08,4.44 0.98,7.71 2.69,9.8 1.71,2.09 4.23,3.14 7.56,3.14 2.48,0 4.42,-0.53 5.83,-1.6 1.41,-1.07 2.58,-2.84 3.52,-5.31 0.43,-0.94 0.9,-1.62 1.41,-2.05 0.51,-0.43 1.24,-0.64 2.18,-0.64l17.16 0c0.85,0 1.62,0.3 2.31,0.9 0.68,0.6 1.02,1.32 1.02,2.18 0,2.65 -1.17,5.83 -3.52,9.54 -2.35,3.71 -6.08,6.98 -11.21,9.8 -5.12,2.82 -11.53,4.23 -19.21,4.23z"/>
  <path class="fil0" d="M593.86 473.27c-10.76,0 -19.02,-2.5 -24.78,-7.49 -5.76,-5 -8.9,-12.1 -9.41,-21.33 -0.09,-1.11 -0.13,-3.03 -0.13,-5.76 0,-2.73 0.04,-4.65 0.13,-5.76 0.51,-9.05 3.73,-16.12 9.67,-21.2 5.93,-5.08 14.11,-7.62 24.53,-7.62 10.42,0 18.59,2.54 24.53,7.62 5.93,5.08 9.16,12.15 9.67,21.2 0.17,2.22 0.26,4.14 0.26,5.76 0,1.62 -0.08,3.54 -0.26,5.76 -0.51,9.22 -3.65,16.33 -9.41,21.33 -5.76,4.99 -14.02,7.49 -24.78,7.49zm0 -16.14c3.5,0 6.1,-1.09 7.81,-3.27 1.71,-2.18 2.69,-5.53 2.95,-10.05 0.09,-0.85 0.13,-2.56 0.13,-5.12 0,-2.56 -0.04,-4.27 -0.13,-5.12 -0.26,-4.44 -1.24,-7.77 -2.95,-9.99 -1.71,-2.22 -4.31,-3.33 -7.81,-3.33 -3.5,0 -6.11,1.11 -7.81,3.33 -1.71,2.22 -2.69,5.55 -2.95,9.99l-0.13 5.12 0.13 5.12c0.26,4.52 1.24,7.88 2.95,10.05 1.71,2.18 4.31,3.27 7.81,3.27z"/>
  <path class="fil0" d="M640.81 471.99c-0.85,0 -1.6,-0.32 -2.24,-0.96 -0.64,-0.64 -0.96,-1.39 -0.96,-2.24l0 -60.2c0,-0.94 0.32,-1.71 0.96,-2.31 0.64,-0.6 1.39,-0.9 2.24,-0.9l14.86 0c0.94,0 1.71,0.3 2.31,0.9 0.6,0.6 0.9,1.37 0.9,2.31l0 4.35c2.05,-2.48 4.7,-4.57 7.94,-6.28 3.25,-1.71 6.92,-2.56 11.01,-2.56 9.39,0 15.84,3.67 19.34,11.02 2.05,-3.24 4.91,-5.89 8.58,-7.94 3.67,-2.05 7.6,-3.07 11.78,-3.07 7,0 12.7,2.37 17.1,7.11 4.4,4.74 6.6,11.8 6.6,21.2l0 36.37c0,0.85 -0.3,1.6 -0.9,2.24 -0.6,0.64 -1.37,0.96 -2.31,0.96l-15.75 0c-0.94,0 -1.73,-0.3 -2.37,-0.9 -0.64,-0.6 -0.96,-1.37 -0.96,-2.31l0 -35.48c0,-3.93 -0.83,-6.81 -2.5,-8.65 -1.66,-1.84 -3.91,-2.75 -6.72,-2.75 -2.65,0 -4.8,0.92 -6.47,2.75 -1.67,1.84 -2.5,4.72 -2.5,8.65l0 35.48c0,0.85 -0.3,1.6 -0.9,2.24 -0.6,0.64 -1.37,0.96 -2.31,0.96l-15.75 0c-0.94,0 -1.73,-0.3 -2.37,-0.9 -0.64,-0.6 -0.96,-1.37 -0.96,-2.31l0 -35.48c0,-3.93 -0.85,-6.81 -2.56,-8.65 -1.71,-1.84 -3.93,-2.75 -6.66,-2.75 -2.65,0 -4.82,0.92 -6.53,2.75 -1.71,1.84 -2.56,4.67 -2.56,8.52l0 35.6c0,0.85 -0.3,1.6 -0.9,2.24 -0.6,0.64 -1.37,0.96 -2.3,0.96l-16.14 0z"/>
  <path class="fil1" d="M480.08 128.78c12.15,0 22.08,9.94 22.08,22.08 0,3.24 -0.71,6.33 -1.98,9.11 -0.76,1.67 -1.73,3.24 -2.87,4.66 -26.73,41.66 -73.46,69.27 -126.64,69.27 -53.31,0 -100.13,-27.74 -126.83,-69.57 -0.96,-1.24 -1.79,-2.58 -2.47,-4 -1.37,-2.87 -2.14,-6.08 -2.14,-9.46 0,-12.15 9.94,-22.08 22.08,-22.08 7.07,0 13.39,3.37 17.44,8.57 0.98,1.26 1.82,2.62 2.51,4.07 18.98,29.26 51.93,48.61 89.41,48.61 37.59,0 70.63,-19.48 89.59,-48.89 0.62,-1.25 1.35,-2.44 2.19,-3.55 4.04,-5.35 10.45,-8.82 17.63,-8.82zm14.65 174.7c22.6,0 41.56,-15.58 46.73,-36.59l1.11 -6.28 29.16 -165.36 9.04 -51.28 3.81 0 0.06 0c12.09,0 21.98,-9.89 21.98,-21.98 0,-10.79 -7.88,-19.83 -18.16,-21.65 -1.24,-0.22 -2.52,-0.34 -3.82,-0.34l-428.02 0c-1.27,0 -2.52,0.11 -3.73,0.32 -10.33,1.79 -18.25,10.85 -18.25,21.66 0,12.09 9.89,21.98 21.98,21.98l0.06 0 3.9 0 9.04 51.27 29.55 167.61 0.33 1.85c4.35,22.11 23.83,38.79 47.22,38.79l248 0zm-64.73 -178.64c15.6,0 28.24,-12.65 28.24,-28.24 0,-15.6 -12.65,-28.24 -28.24,-28.24 -15.6,0 -28.24,12.65 -28.24,28.24 0,15.6 12.65,28.24 28.24,28.24zm-118.74 0c15.6,0 28.24,-12.65 28.24,-28.24 0,-15.6 -12.65,-28.24 -28.24,-28.24 -15.6,0 -28.24,12.65 -28.24,28.24 0,15.6 12.65,28.24 28.24,28.24z"/>
 </g>
</svg>
