<?xml version="1.0" encoding="UTF-8"?>
<!DOCTYPE svg PUBLIC "-//W3C//DTD SVG 1.1//EN" "http://www.w3.org/Graphics/SVG/1.1/DTD/svg11.dtd">
<!-- Creator: CorelDRAW 2019 (64-Bit) -->
<svg xmlns="http://www.w3.org/2000/svg" xml:space="preserve" width="3.7445in" height="2.50731in" version="1.1" style="shape-rendering:geometricPrecision; text-rendering:geometricPrecision; image-rendering:optimizeQuality; fill-rule:evenodd; clip-rule:evenodd"
viewBox="0 0 273.59 183.19"
 xmlns:xlink="http://www.w3.org/1999/xlink"
 xmlns:xodm="http://www.corel.com/coreldraw/odm/2003">
 <defs>
  <style type="text/css">
   <![CDATA[
    .fil1 {fill:#E86317}
    .fil0 {fill:white;fill-rule:nonzero}
   ]]>
  </style>
 </defs>
 <g id="Layer_x0020_1">
  <metadata id="CorelCorpID_0Corel-Layer"/>
  <path class="fil0" d="M1.18 174.21c-0.31,0 -0.59,-0.12 -0.83,-0.35 -0.24,-0.24 -0.35,-0.51 -0.35,-0.83l0 -30.68c0,-0.35 0.11,-0.64 0.33,-0.87 0.22,-0.24 0.5,-0.35 0.85,-0.35l12.43 0c4.66,0 8.29,1.11 10.87,3.33 2.58,2.22 3.94,5.41 4.07,9.57 0.03,0.91 0.05,2.13 0.05,3.64 0,1.51 -0.02,2.71 -0.05,3.59 -0.32,8.64 -5.22,12.95 -14.7,12.95l-12.67 0zm12.43 -7.09c1.99,0 3.45,-0.47 4.4,-1.42 0.95,-0.95 1.45,-2.46 1.51,-4.54 0.06,-0.91 0.09,-2.1 0.09,-3.55 0,-1.45 -0.03,-2.62 -0.09,-3.5 -0.06,-2.02 -0.61,-3.51 -1.63,-4.47 -1.02,-0.96 -2.53,-1.44 -4.51,-1.44l-4.49 0 0 18.91 4.73 0z"/>
  <path class="fil0" d="M33.34 174.21c-0.32,0 -0.59,-0.12 -0.83,-0.35 -0.24,-0.24 -0.35,-0.51 -0.35,-0.83l0 -22.17c0,-0.35 0.11,-0.64 0.33,-0.87 0.22,-0.24 0.5,-0.35 0.85,-0.35l5.77 0c0.35,0 0.64,0.12 0.87,0.35 0.24,0.24 0.35,0.53 0.35,0.87l0 1.8c0.88,-0.98 1.91,-1.73 3.1,-2.25 1.18,-0.52 2.5,-0.78 3.95,-0.78l2.13 0c0.35,0 0.63,0.11 0.85,0.33 0.22,0.22 0.33,0.5 0.33,0.85l0 5.15c0,0.31 -0.11,0.59 -0.33,0.83 -0.22,0.24 -0.5,0.35 -0.85,0.35l-4.77 0c-1.26,0 -2.23,0.35 -2.91,1.04 -0.68,0.69 -1.02,1.67 -1.02,2.93l0 11.91c0,0.35 -0.12,0.63 -0.35,0.85 -0.24,0.22 -0.53,0.33 -0.87,0.33l-6.24 0z"/>
  <path class="fil0" d="M59.86 183.19c-0.28,0 -0.52,-0.09 -0.71,-0.28 -0.19,-0.19 -0.28,-0.43 -0.28,-0.71 0,-0.22 0.03,-0.43 0.09,-0.61l3.73 -8.89 -9.08 -21.46c-0.09,-0.25 -0.14,-0.43 -0.14,-0.52 0.06,-0.32 0.2,-0.58 0.4,-0.78 0.2,-0.21 0.45,-0.31 0.73,-0.31l5.63 0c0.66,0 1.12,0.33 1.37,0.99l5.25 13.43 5.39 -13.43c0.31,-0.66 0.79,-0.99 1.42,-0.99l5.58 0c0.28,0 0.53,0.1 0.73,0.31 0.2,0.2 0.31,0.43 0.31,0.69 0,0.22 -0.03,0.43 -0.09,0.61l-13.38 30.96c-0.31,0.66 -0.8,0.99 -1.47,0.99l-5.48 0z"/>
  <path class="fil0" d="M83.59 174.21c-0.31,0 -0.59,-0.12 -0.83,-0.35 -0.24,-0.24 -0.35,-0.51 -0.35,-0.83l0 -30.68c0,-0.35 0.11,-0.64 0.33,-0.87 0.22,-0.24 0.5,-0.35 0.85,-0.35l6.33 0c0.35,0 0.63,0.12 0.85,0.35 0.22,0.24 0.33,0.53 0.33,0.87l0 10.31 8.37 -10.59c0.35,-0.63 0.96,-0.95 1.84,-0.95l7.23 0c0.25,0 0.48,0.1 0.69,0.31 0.2,0.2 0.31,0.43 0.31,0.69 0,0.25 -0.06,0.44 -0.19,0.57l-11.01 14.28 11.91 15.69c0.13,0.13 0.19,0.32 0.19,0.57 0,0.25 -0.1,0.48 -0.31,0.69 -0.2,0.2 -0.45,0.31 -0.73,0.31l-7.42 0c-0.5,0 -0.91,-0.1 -1.23,-0.31 -0.31,-0.2 -0.54,-0.42 -0.66,-0.64l-8.98 -11.53 0 11.3c0,0.32 -0.11,0.59 -0.33,0.83 -0.22,0.24 -0.5,0.35 -0.85,0.35l-6.33 0z"/>
  <path class="fil0" d="M115.12 174.21c-0.35,0 -0.64,-0.11 -0.87,-0.33 -0.24,-0.22 -0.35,-0.5 -0.35,-0.85l0 -31.2c0,-0.35 0.12,-0.63 0.35,-0.85 0.24,-0.22 0.53,-0.33 0.87,-0.33l5.91 0c0.35,0 0.63,0.11 0.85,0.33 0.22,0.22 0.33,0.5 0.33,0.85l0 31.2c0,0.32 -0.11,0.59 -0.33,0.83 -0.22,0.24 -0.5,0.35 -0.85,0.35l-5.91 0z"/>
  <path class="fil0" d="M126.84 146.23c-0.35,0 -0.63,-0.12 -0.85,-0.35 -0.22,-0.24 -0.33,-0.53 -0.33,-0.87l0 -4.4c0,-0.35 0.12,-0.64 0.35,-0.87 0.24,-0.24 0.51,-0.35 0.83,-0.35l5.91 0c0.35,0 0.64,0.12 0.87,0.35 0.24,0.24 0.35,0.53 0.35,0.87l0 4.4c0,0.35 -0.12,0.64 -0.35,0.87 -0.24,0.24 -0.53,0.35 -0.87,0.35l-5.91 0zm0 27.99c-0.32,0 -0.59,-0.12 -0.83,-0.35 -0.24,-0.24 -0.35,-0.51 -0.35,-0.83l0 -22.22c0,-0.35 0.12,-0.63 0.35,-0.85 0.24,-0.22 0.51,-0.33 0.83,-0.33l5.91 0c0.35,0 0.64,0.11 0.87,0.33 0.24,0.22 0.35,0.5 0.35,0.85l0 22.22c0,0.35 -0.12,0.63 -0.35,0.85 -0.24,0.22 -0.53,0.33 -0.87,0.33l-5.91 0z"/>
  <path class="fil0" d="M138.61 174.21c-0.32,0 -0.59,-0.12 -0.83,-0.35 -0.24,-0.24 -0.35,-0.51 -0.35,-0.83l0 -22.22c0,-0.35 0.12,-0.63 0.35,-0.85 0.24,-0.22 0.51,-0.33 0.83,-0.33l5.81 0c0.35,0 0.63,0.11 0.85,0.33 0.22,0.22 0.33,0.5 0.33,0.85l0 1.8c0.85,-1.04 1.95,-1.88 3.29,-2.51 1.34,-0.63 2.88,-0.95 4.61,-0.95 1.8,0 3.4,0.41 4.8,1.23 1.4,0.82 2.51,2.03 3.31,3.64 0.8,1.61 1.21,3.55 1.21,5.81l0 13.19c0,0.32 -0.11,0.59 -0.33,0.83 -0.22,0.24 -0.5,0.35 -0.85,0.35l-6.29 0c-0.35,0 -0.64,-0.11 -0.87,-0.33 -0.24,-0.22 -0.35,-0.5 -0.35,-0.85l0 -12.91c0,-1.42 -0.34,-2.51 -1.02,-3.26 -0.68,-0.76 -1.66,-1.13 -2.95,-1.13 -1.26,0 -2.25,0.39 -2.98,1.16 -0.72,0.77 -1.09,1.85 -1.09,3.24l0 12.91c0,0.32 -0.11,0.59 -0.33,0.83 -0.22,0.24 -0.5,0.35 -0.85,0.35l-6.29 0z"/>
  <path class="fil0" d="M167.49 174.21c-0.35,0 -0.64,-0.11 -0.87,-0.33 -0.24,-0.22 -0.35,-0.5 -0.35,-0.85l0 -6.24c0,-0.35 0.12,-0.64 0.35,-0.88 0.24,-0.24 0.53,-0.35 0.87,-0.35l6.24 0c0.35,0 0.63,0.12 0.85,0.35 0.22,0.24 0.33,0.53 0.33,0.88l0 6.24c0,0.32 -0.11,0.59 -0.33,0.83 -0.22,0.24 -0.5,0.35 -0.85,0.35l-6.24 0z"/>
  <path class="fil0" d="M190.61 174.68c-3.59,0 -6.5,-0.95 -8.72,-2.86 -2.22,-1.91 -3.41,-4.56 -3.57,-7.97l-0.05 -1.89 0.05 -1.94c0.13,-3.4 1.31,-6.07 3.55,-7.99 2.24,-1.92 5.15,-2.88 8.75,-2.88 2.74,0 5.04,0.49 6.9,1.47 1.86,0.98 3.25,2.13 4.16,3.47 0.91,1.34 1.4,2.56 1.47,3.66 0.03,0.35 -0.08,0.64 -0.33,0.87 -0.25,0.24 -0.55,0.35 -0.9,0.35l-6.33 0c-0.35,0 -0.61,-0.08 -0.8,-0.24 -0.19,-0.16 -0.36,-0.41 -0.52,-0.76 -0.35,-0.88 -0.8,-1.53 -1.35,-1.94 -0.55,-0.41 -1.25,-0.61 -2.1,-0.61 -2.43,0 -3.69,1.61 -3.78,4.82l-0.05 1.8 0.05 1.56c0.03,1.64 0.36,2.84 0.99,3.62 0.63,0.77 1.56,1.16 2.79,1.16 0.91,0 1.63,-0.2 2.15,-0.59 0.52,-0.39 0.95,-1.05 1.3,-1.96 0.16,-0.35 0.33,-0.6 0.52,-0.76 0.19,-0.16 0.46,-0.24 0.8,-0.24l6.33 0c0.32,0 0.6,0.11 0.85,0.33 0.25,0.22 0.38,0.49 0.38,0.8 0,0.98 -0.43,2.15 -1.3,3.52 -0.87,1.37 -2.25,2.58 -4.14,3.62 -1.89,1.04 -4.25,1.56 -7.09,1.56z"/>
  <path class="fil0" d="M219.19 174.68c-3.97,0 -7.02,-0.92 -9.15,-2.77 -2.13,-1.84 -3.29,-4.47 -3.47,-7.87 -0.03,-0.41 -0.05,-1.12 -0.05,-2.13 0,-1.01 0.02,-1.72 0.05,-2.13 0.19,-3.34 1.38,-5.95 3.57,-7.82 2.19,-1.87 5.21,-2.81 9.05,-2.81 3.85,0 6.86,0.94 9.05,2.81 2.19,1.88 3.38,4.48 3.57,7.82 0.06,0.82 0.09,1.53 0.09,2.13 0,0.6 -0.03,1.31 -0.09,2.13 -0.19,3.4 -1.35,6.03 -3.47,7.87 -2.13,1.84 -5.18,2.77 -9.15,2.77zm0 -5.96c1.29,0 2.25,-0.4 2.88,-1.21 0.63,-0.8 0.99,-2.04 1.09,-3.71 0.03,-0.32 0.05,-0.95 0.05,-1.89 0,-0.95 -0.02,-1.58 -0.05,-1.89 -0.09,-1.64 -0.46,-2.87 -1.09,-3.69 -0.63,-0.82 -1.59,-1.23 -2.88,-1.23 -1.29,0 -2.25,0.41 -2.88,1.23 -0.63,0.82 -0.99,2.05 -1.09,3.69l-0.05 1.89 0.05 1.89c0.09,1.67 0.46,2.91 1.09,3.71 0.63,0.8 1.59,1.21 2.88,1.21z"/>
  <path class="fil0" d="M236.53 174.21c-0.32,0 -0.59,-0.12 -0.83,-0.35 -0.24,-0.24 -0.35,-0.51 -0.35,-0.83l0 -22.22c0,-0.35 0.12,-0.63 0.35,-0.85 0.24,-0.22 0.51,-0.33 0.83,-0.33l5.48 0c0.35,0 0.63,0.11 0.85,0.33 0.22,0.22 0.33,0.5 0.33,0.85l0 1.61c0.76,-0.91 1.73,-1.69 2.93,-2.32 1.2,-0.63 2.55,-0.95 4.07,-0.95 3.47,0 5.85,1.36 7.14,4.07 0.76,-1.2 1.81,-2.17 3.17,-2.93 1.36,-0.76 2.8,-1.13 4.35,-1.13 2.58,0 4.69,0.87 6.31,2.62 1.62,1.75 2.43,4.36 2.43,7.82l0 13.43c0,0.32 -0.11,0.59 -0.33,0.83 -0.22,0.24 -0.5,0.35 -0.85,0.35l-5.81 0c-0.35,0 -0.64,-0.11 -0.87,-0.33 -0.24,-0.22 -0.35,-0.5 -0.35,-0.85l0 -13.09c0,-1.45 -0.31,-2.51 -0.92,-3.19 -0.61,-0.68 -1.44,-1.02 -2.48,-1.02 -0.98,0 -1.77,0.34 -2.39,1.02 -0.61,0.68 -0.92,1.74 -0.92,3.19l0 13.09c0,0.32 -0.11,0.59 -0.33,0.83 -0.22,0.24 -0.5,0.35 -0.85,0.35l-5.81 0c-0.35,0 -0.64,-0.11 -0.87,-0.33 -0.24,-0.22 -0.35,-0.5 -0.35,-0.85l0 -13.09c0,-1.45 -0.32,-2.51 -0.95,-3.19 -0.63,-0.68 -1.45,-1.02 -2.46,-1.02 -0.98,0 -1.78,0.34 -2.41,1.02 -0.63,0.68 -0.95,1.73 -0.95,3.14l0 13.14c0,0.32 -0.11,0.59 -0.33,0.83 -0.22,0.24 -0.5,0.35 -0.85,0.35l-5.96 0z"/>
  <path class="fil1" d="M177.32 47.53c4.48,0 8.15,3.67 8.15,8.15 0,1.2 -0.26,2.34 -0.73,3.36 -0.28,0.62 -0.64,1.19 -1.06,1.72 -9.87,15.38 -27.12,25.57 -46.74,25.57 -19.68,0 -36.96,-10.24 -46.81,-25.68 -0.35,-0.46 -0.66,-0.95 -0.91,-1.48 -0.51,-1.06 -0.79,-2.24 -0.79,-3.49 0,-4.48 3.67,-8.15 8.15,-8.15 2.61,0 4.94,1.24 6.44,3.16 0.36,0.46 0.67,0.97 0.93,1.5 7.01,10.8 19.17,17.94 33,17.94 13.87,0 26.07,-7.19 33.07,-18.05 0.23,-0.46 0.5,-0.9 0.81,-1.31 1.49,-1.97 3.86,-3.26 6.51,-3.26zm5.41 64.48c8.34,0 15.34,-5.75 17.25,-13.51l0.41 -2.32 10.76 -61.04 3.34 -18.93 1.41 0 0.02 0c4.46,0 8.11,-3.65 8.11,-8.11 0,-3.98 -2.91,-7.32 -6.7,-7.99 -0.46,-0.08 -0.93,-0.12 -1.41,-0.12l-157.98 0c-0.47,0 -0.93,0.04 -1.38,0.12 -3.81,0.66 -6.74,4 -6.74,8 0,4.46 3.65,8.11 8.11,8.11l0.02 0 1.44 0 3.34 18.92 10.91 61.87 0.12 0.68c1.6,8.16 8.8,14.32 17.43,14.32l91.54 0zm-23.89 -65.94c5.76,0 10.42,-4.67 10.42,-10.43 0,-5.76 -4.67,-10.43 -10.42,-10.43 -5.76,0 -10.43,4.67 -10.43,10.43 0,5.76 4.67,10.43 10.43,10.43zm-43.83 0c5.76,0 10.42,-4.67 10.42,-10.43 0,-5.76 -4.67,-10.43 -10.42,-10.43 -5.76,0 -10.43,4.67 -10.43,10.43 0,5.76 4.67,10.43 10.43,10.43z"/>
 </g>
</svg>
