<?xml version="1.0" encoding="UTF-8"?>
<!DOCTYPE svg PUBLIC "-//W3C//DTD SVG 1.1//EN" "http://www.w3.org/Graphics/SVG/1.1/DTD/svg11.dtd">
<!-- Creator: CorelDRAW 2019 (64-Bit) -->
<svg xmlns="http://www.w3.org/2000/svg" xml:space="preserve" width="3.7445in" height="2.50731in" version="1.1" style="shape-rendering:geometricPrecision; text-rendering:geometricPrecision; image-rendering:optimizeQuality; fill-rule:evenodd; clip-rule:evenodd"
viewBox="0 0 207.97 139.26"
 xmlns:xlink="http://www.w3.org/1999/xlink"
 xmlns:xodm="http://www.corel.com/coreldraw/odm/2003">
 <defs>
  <style type="text/css">
   <![CDATA[
    .fil1 {fill:black}
    .fil0 {fill:black;fill-rule:nonzero}
   ]]>
  </style>
 </defs>
 <g id="Layer_x0020_1">
  <metadata id="CorelCorpID_0Corel-Layer"/>
  <path class="fil0" d="M0.9 132.43c-0.24,0 -0.45,-0.09 -0.63,-0.27 -0.18,-0.18 -0.27,-0.39 -0.27,-0.63l0 -23.32c0,-0.26 0.08,-0.49 0.25,-0.66 0.17,-0.18 0.38,-0.27 0.65,-0.27l9.45 0c3.55,0 6.3,0.84 8.26,2.53 1.96,1.69 2.99,4.11 3.09,7.28 0.02,0.69 0.04,1.62 0.04,2.77 0,1.15 -0.01,2.06 -0.04,2.73 -0.24,6.56 -3.96,9.85 -11.18,9.85l-9.63 0zm9.45 -5.39c1.51,0 2.62,-0.36 3.34,-1.08 0.72,-0.72 1.1,-1.87 1.15,-3.45 0.05,-0.69 0.07,-1.59 0.07,-2.7 0,-1.1 -0.02,-1.99 -0.07,-2.66 -0.05,-1.53 -0.46,-2.67 -1.24,-3.4 -0.78,-0.73 -1.92,-1.1 -3.43,-1.1l-3.41 0 0 14.37 3.59 0z"/>
  <path class="fil0" d="M25.34 132.43c-0.24,0 -0.45,-0.09 -0.63,-0.27 -0.18,-0.18 -0.27,-0.39 -0.27,-0.63l0 -16.85c0,-0.26 0.08,-0.48 0.25,-0.66 0.17,-0.18 0.38,-0.27 0.65,-0.27l4.38 0c0.26,0 0.49,0.09 0.66,0.27 0.18,0.18 0.27,0.4 0.27,0.66l0 1.37c0.67,-0.74 1.46,-1.31 2.35,-1.71 0.9,-0.4 1.9,-0.59 3,-0.59l1.62 0c0.26,0 0.48,0.08 0.65,0.25 0.17,0.17 0.25,0.38 0.25,0.65l0 3.92c0,0.24 -0.08,0.45 -0.25,0.63 -0.17,0.18 -0.38,0.27 -0.65,0.27l-3.63 0c-0.96,0 -1.69,0.26 -2.21,0.79 -0.51,0.53 -0.77,1.27 -0.77,2.23l0 9.06c0,0.26 -0.09,0.48 -0.27,0.65 -0.18,0.17 -0.4,0.25 -0.66,0.25l-4.74 0z"/>
  <path class="fil0" d="M45.5 139.26c-0.22,0 -0.4,-0.07 -0.54,-0.22 -0.14,-0.14 -0.22,-0.32 -0.22,-0.54 0,-0.17 0.02,-0.32 0.07,-0.47l2.84 -6.76 -6.9 -16.31c-0.07,-0.19 -0.11,-0.32 -0.11,-0.4 0.05,-0.24 0.15,-0.44 0.31,-0.59 0.16,-0.16 0.34,-0.23 0.56,-0.23l4.28 0c0.5,0 0.85,0.25 1.04,0.75l3.99 10.21 4.1 -10.21c0.24,-0.5 0.6,-0.75 1.08,-0.75l4.24 0c0.22,0 0.4,0.08 0.56,0.23 0.16,0.16 0.23,0.33 0.23,0.52 0,0.17 -0.02,0.32 -0.07,0.47l-10.17 23.54c-0.24,0.5 -0.61,0.75 -1.11,0.75l-4.17 0z"/>
  <path class="fil0" d="M63.54 132.43c-0.24,0 -0.45,-0.09 -0.63,-0.27 -0.18,-0.18 -0.27,-0.39 -0.27,-0.63l0 -23.32c0,-0.26 0.08,-0.49 0.25,-0.66 0.17,-0.18 0.38,-0.27 0.65,-0.27l4.82 0c0.26,0 0.48,0.09 0.65,0.27 0.17,0.18 0.25,0.4 0.25,0.66l0 7.83 6.36 -8.05c0.26,-0.48 0.73,-0.72 1.4,-0.72l5.5 0c0.19,0 0.37,0.08 0.52,0.23 0.16,0.16 0.23,0.33 0.23,0.52 0,0.19 -0.05,0.34 -0.14,0.43l-8.37 10.85 9.06 11.93c0.1,0.1 0.14,0.24 0.14,0.43 0,0.19 -0.08,0.37 -0.23,0.52 -0.16,0.16 -0.34,0.23 -0.56,0.23l-5.64 0c-0.38,0 -0.69,-0.08 -0.93,-0.23 -0.24,-0.16 -0.41,-0.32 -0.5,-0.49l-6.83 -8.77 0 8.59c0,0.24 -0.08,0.45 -0.25,0.63 -0.17,0.18 -0.38,0.27 -0.65,0.27l-4.82 0z"/>
  <path class="fil0" d="M87.51 132.43c-0.26,0 -0.49,-0.08 -0.66,-0.25 -0.18,-0.17 -0.27,-0.38 -0.27,-0.65l0 -23.72c0,-0.26 0.09,-0.48 0.27,-0.65 0.18,-0.17 0.4,-0.25 0.66,-0.25l4.49 0c0.26,0 0.48,0.08 0.65,0.25 0.17,0.17 0.25,0.38 0.25,0.65l0 23.72c0,0.24 -0.08,0.45 -0.25,0.63 -0.17,0.18 -0.38,0.27 -0.65,0.27l-4.49 0z"/>
  <path class="fil0" d="M96.42 111.15c-0.26,0 -0.48,-0.09 -0.65,-0.27 -0.17,-0.18 -0.25,-0.4 -0.25,-0.66l0 -3.34c0,-0.26 0.09,-0.48 0.27,-0.66 0.18,-0.18 0.39,-0.27 0.63,-0.27l4.49 0c0.26,0 0.48,0.09 0.66,0.27 0.18,0.18 0.27,0.4 0.27,0.66l0 3.34c0,0.26 -0.09,0.48 -0.27,0.66 -0.18,0.18 -0.4,0.27 -0.66,0.27l-4.49 0zm0 21.27c-0.24,0 -0.45,-0.09 -0.63,-0.27 -0.18,-0.18 -0.27,-0.39 -0.27,-0.63l0 -16.89c0,-0.26 0.09,-0.48 0.27,-0.65 0.18,-0.17 0.39,-0.25 0.63,-0.25l4.49 0c0.26,0 0.48,0.08 0.66,0.25 0.18,0.17 0.27,0.38 0.27,0.65l0 16.89c0,0.26 -0.09,0.48 -0.27,0.65 -0.18,0.17 -0.4,0.25 -0.66,0.25l-4.49 0z"/>
  <path class="fil0" d="M105.36 132.43c-0.24,0 -0.45,-0.09 -0.63,-0.27 -0.18,-0.18 -0.27,-0.39 -0.27,-0.63l0 -16.89c0,-0.26 0.09,-0.48 0.27,-0.65 0.18,-0.17 0.39,-0.25 0.63,-0.25l4.42 0c0.26,0 0.48,0.08 0.65,0.25 0.17,0.17 0.25,0.38 0.25,0.65l0 1.37c0.65,-0.79 1.48,-1.43 2.5,-1.9 1.02,-0.48 2.19,-0.72 3.5,-0.72 1.37,0 2.58,0.31 3.65,0.93 1.07,0.62 1.9,1.55 2.52,2.77 0.61,1.22 0.92,2.7 0.92,4.42l0 10.03c0,0.24 -0.08,0.45 -0.25,0.63 -0.17,0.18 -0.38,0.27 -0.65,0.27l-4.78 0c-0.26,0 -0.48,-0.08 -0.66,-0.25 -0.18,-0.17 -0.27,-0.38 -0.27,-0.65l0 -9.81c0,-1.08 -0.26,-1.9 -0.77,-2.48 -0.51,-0.58 -1.26,-0.86 -2.25,-0.86 -0.96,0 -1.71,0.29 -2.26,0.88 -0.55,0.59 -0.83,1.41 -0.83,2.46l0 9.81c0,0.24 -0.08,0.45 -0.25,0.63 -0.17,0.18 -0.38,0.27 -0.65,0.27l-4.78 0z"/>
  <path class="fil0" d="M127.32 132.43c-0.26,0 -0.49,-0.08 -0.66,-0.25 -0.18,-0.17 -0.27,-0.38 -0.27,-0.65l0 -4.74c0,-0.26 0.09,-0.49 0.27,-0.67 0.18,-0.18 0.4,-0.27 0.66,-0.27l4.74 0c0.26,0 0.48,0.09 0.65,0.27 0.17,0.18 0.25,0.4 0.25,0.67l0 4.74c0,0.24 -0.08,0.45 -0.25,0.63 -0.17,0.18 -0.38,0.27 -0.65,0.27l-4.74 0z"/>
  <path class="fil0" d="M144.89 132.79c-2.73,0 -4.94,-0.72 -6.63,-2.17 -1.69,-1.45 -2.59,-3.47 -2.71,-6.05l-0.04 -1.44 0.04 -1.47c0.1,-2.59 0.99,-4.61 2.69,-6.07 1.7,-1.46 3.92,-2.19 6.65,-2.19 2.08,0 3.83,0.37 5.25,1.11 1.41,0.74 2.47,1.62 3.16,2.64 0.69,1.02 1.07,1.95 1.11,2.78 0.02,0.26 -0.06,0.49 -0.25,0.66 -0.19,0.18 -0.42,0.27 -0.68,0.27l-4.82 0c-0.26,0 -0.47,-0.06 -0.61,-0.18 -0.14,-0.12 -0.28,-0.31 -0.4,-0.57 -0.26,-0.67 -0.6,-1.16 -1.02,-1.47 -0.42,-0.31 -0.95,-0.47 -1.6,-0.47 -1.84,0 -2.8,1.22 -2.87,3.67l-0.04 1.37 0.04 1.19c0.02,1.25 0.28,2.16 0.75,2.75 0.48,0.59 1.19,0.88 2.12,0.88 0.69,0 1.24,-0.15 1.64,-0.45 0.4,-0.3 0.72,-0.8 0.99,-1.49 0.12,-0.26 0.25,-0.46 0.4,-0.58 0.14,-0.12 0.35,-0.18 0.61,-0.18l4.82 0c0.24,0 0.46,0.08 0.65,0.25 0.19,0.17 0.29,0.37 0.29,0.61 0,0.74 -0.33,1.64 -0.99,2.68 -0.66,1.04 -1.71,1.96 -3.14,2.75 -1.44,0.79 -3.23,1.19 -5.39,1.19z"/>
  <path class="fil0" d="M166.62 132.79c-3.02,0 -5.34,-0.7 -6.95,-2.1 -1.62,-1.4 -2.5,-3.4 -2.64,-5.98 -0.02,-0.31 -0.04,-0.85 -0.04,-1.62 0,-0.77 0.01,-1.31 0.04,-1.62 0.14,-2.54 1.05,-4.52 2.71,-5.95 1.66,-1.43 3.96,-2.14 6.88,-2.14 2.92,0 5.22,0.71 6.88,2.14 1.66,1.43 2.57,3.41 2.71,5.95 0.05,0.62 0.07,1.16 0.07,1.62 0,0.46 -0.02,0.99 -0.07,1.62 -0.14,2.59 -1.02,4.58 -2.64,5.98 -1.62,1.4 -3.93,2.1 -6.95,2.1zm0 -4.53c0.98,0 1.71,-0.31 2.19,-0.92 0.48,-0.61 0.75,-1.55 0.83,-2.82 0.02,-0.24 0.04,-0.72 0.04,-1.44 0,-0.72 -0.01,-1.2 -0.04,-1.44 -0.07,-1.25 -0.35,-2.18 -0.83,-2.8 -0.48,-0.62 -1.21,-0.93 -2.19,-0.93 -0.98,0 -1.71,0.31 -2.19,0.93 -0.48,0.62 -0.75,1.56 -0.83,2.8l-0.04 1.44 0.04 1.44c0.07,1.27 0.35,2.21 0.83,2.82 0.48,0.61 1.21,0.92 2.19,0.92z"/>
  <path class="fil0" d="M179.8 132.43c-0.24,0 -0.45,-0.09 -0.63,-0.27 -0.18,-0.18 -0.27,-0.39 -0.27,-0.63l0 -16.89c0,-0.26 0.09,-0.48 0.27,-0.65 0.18,-0.17 0.39,-0.25 0.63,-0.25l4.17 0c0.26,0 0.48,0.08 0.65,0.25 0.17,0.17 0.25,0.38 0.25,0.65l0 1.22c0.57,-0.69 1.32,-1.28 2.23,-1.76 0.91,-0.48 1.94,-0.72 3.09,-0.72 2.64,0 4.44,1.03 5.43,3.09 0.57,-0.91 1.38,-1.65 2.41,-2.23 1.03,-0.58 2.13,-0.86 3.31,-0.86 1.96,0 3.56,0.66 4.8,1.99 1.23,1.33 1.85,3.31 1.85,5.95l0 10.21c0,0.24 -0.08,0.45 -0.25,0.63 -0.17,0.18 -0.38,0.27 -0.65,0.27l-4.42 0c-0.26,0 -0.49,-0.08 -0.66,-0.25 -0.18,-0.17 -0.27,-0.38 -0.27,-0.65l0 -9.95c0,-1.1 -0.23,-1.91 -0.7,-2.43 -0.47,-0.52 -1.1,-0.77 -1.89,-0.77 -0.74,0 -1.35,0.26 -1.81,0.77 -0.47,0.51 -0.7,1.32 -0.7,2.43l0 9.95c0,0.24 -0.08,0.45 -0.25,0.63 -0.17,0.18 -0.38,0.27 -0.65,0.27l-4.42 0c-0.26,0 -0.48,-0.08 -0.66,-0.25 -0.18,-0.17 -0.27,-0.38 -0.27,-0.65l0 -9.95c0,-1.1 -0.24,-1.91 -0.72,-2.43 -0.48,-0.52 -1.1,-0.77 -1.87,-0.77 -0.74,0 -1.35,0.26 -1.83,0.77 -0.48,0.51 -0.72,1.31 -0.72,2.39l0 9.99c0,0.24 -0.08,0.45 -0.25,0.63 -0.17,0.18 -0.38,0.27 -0.65,0.27l-4.53 0z"/>
  <path class="fil1" d="M134.52 36.13c3.41,0 6.2,2.79 6.2,6.2 0,0.91 -0.2,1.78 -0.56,2.56 -0.21,0.47 -0.49,0.91 -0.8,1.31 -7.5,11.69 -20.61,19.44 -35.53,19.44 -14.96,0 -28.09,-7.78 -35.59,-19.52 -0.27,-0.35 -0.5,-0.72 -0.69,-1.12 -0.39,-0.81 -0.6,-1.71 -0.6,-2.66 0,-3.41 2.79,-6.2 6.2,-6.2 1.98,0 3.76,0.94 4.89,2.41 0.27,0.35 0.51,0.74 0.71,1.14 5.33,8.21 14.57,13.64 25.09,13.64 10.55,0 19.82,-5.46 25.14,-13.72 0.17,-0.35 0.38,-0.68 0.61,-1 1.13,-1.5 2.93,-2.48 4.95,-2.48zm4.11 49.02c6.34,0 11.66,-4.37 13.11,-10.27l0.31 -1.76 8.18 -46.4 2.54 -14.39 1.07 0 0.02 0c3.39,0 6.17,-2.78 6.17,-6.17 0,-3.03 -2.21,-5.56 -5.1,-6.07 -0.35,-0.06 -0.71,-0.09 -1.07,-0.09l-120.09 0c-0.36,0 -0.71,0.03 -1.05,0.09 -2.9,0.5 -5.12,3.04 -5.12,6.08 0,3.39 2.78,6.17 6.17,6.17l0.02 0 1.09 0 2.54 14.38 8.29 47.03 0.09 0.52c1.22,6.2 6.69,10.88 13.25,10.88l69.58 0zm-18.16 -50.12c4.38,0 7.92,-3.55 7.92,-7.92 0,-4.38 -3.55,-7.92 -7.92,-7.92 -4.38,0 -7.92,3.55 -7.92,7.92 0,4.38 3.55,7.92 7.92,7.92zm-33.31 0c4.38,0 7.92,-3.55 7.92,-7.92 0,-4.38 -3.55,-7.92 -7.92,-7.92 -4.38,0 -7.92,3.55 -7.92,7.92 0,4.38 3.55,7.92 7.92,7.92z"/>
 </g>
</svg>
