<?xml version="1.0" encoding="UTF-8"?>
<!DOCTYPE svg PUBLIC "-//W3C//DTD SVG 1.1//EN" "http://www.w3.org/Graphics/SVG/1.1/DTD/svg11.dtd">
<!-- Creator: CorelDRAW 2019 (64-Bit) -->
<svg xmlns="http://www.w3.org/2000/svg" xml:space="preserve" width="2.38435in" height="2.5065in" version="1.1" style="shape-rendering:geometricPrecision; text-rendering:geometricPrecision; image-rendering:optimizeQuality; fill-rule:evenodd; clip-rule:evenodd"
viewBox="0 0 156.01 164"
 xmlns:xlink="http://www.w3.org/1999/xlink"
 xmlns:xodm="http://www.corel.com/coreldraw/odm/2003">
 <defs>
  <style type="text/css">
   <![CDATA[
    .fil1 {fill:#E86317}
    .fil0 {fill:black;fill-rule:nonzero}
   ]]>
  </style>
 </defs>
 <g id="Layer_x0020_1">
  <metadata id="CorelCorpID_0Corel-Layer"/>
  <path class="fil0" d="M6.11 155.96c-0.28,0 -0.53,-0.11 -0.74,-0.32 -0.21,-0.21 -0.32,-0.46 -0.32,-0.74l0 -27.48c0,-0.31 0.1,-0.57 0.3,-0.78 0.2,-0.21 0.45,-0.32 0.76,-0.32l11.13 0c4.18,0 7.42,0.99 9.74,2.98 2.31,1.99 3.53,4.85 3.64,8.57 0.03,0.82 0.04,1.9 0.04,3.26 0,1.36 -0.01,2.43 -0.04,3.22 -0.28,7.73 -4.67,11.6 -13.17,11.6l-11.35 0zm11.13 -6.35c1.78,0 3.09,-0.42 3.94,-1.27 0.85,-0.85 1.3,-2.2 1.36,-4.06 0.06,-0.82 0.08,-1.88 0.08,-3.18 0,-1.3 -0.03,-2.34 -0.08,-3.13 -0.06,-1.81 -0.54,-3.14 -1.46,-4 -0.92,-0.86 -2.26,-1.29 -4.04,-1.29l-4.02 0 0 16.93 4.23 0z"/>
  <path class="fil0" d="M34.91 155.96c-0.28,0 -0.53,-0.11 -0.74,-0.32 -0.21,-0.21 -0.32,-0.46 -0.32,-0.74l0 -19.86c0,-0.31 0.1,-0.57 0.3,-0.78 0.2,-0.21 0.45,-0.32 0.76,-0.32l5.16 0c0.31,0 0.57,0.11 0.78,0.32 0.21,0.21 0.32,0.47 0.32,0.78l0 1.61c0.79,-0.88 1.71,-1.55 2.77,-2.01 1.06,-0.47 2.24,-0.7 3.53,-0.7l1.9 0c0.31,0 0.56,0.1 0.76,0.3 0.2,0.2 0.3,0.45 0.3,0.76l0 4.61c0,0.28 -0.1,0.53 -0.3,0.74 -0.2,0.21 -0.45,0.32 -0.76,0.32l-4.28 0c-1.13,0 -2,0.31 -2.6,0.93 -0.61,0.62 -0.91,1.5 -0.91,2.62l0 10.67c0,0.31 -0.11,0.56 -0.32,0.76 -0.21,0.2 -0.47,0.3 -0.78,0.3l-5.59 0z"/>
  <path class="fil0" d="M58.66 164c-0.25,0 -0.47,-0.08 -0.63,-0.25 -0.17,-0.17 -0.25,-0.38 -0.25,-0.63 0,-0.2 0.03,-0.38 0.08,-0.55l3.34 -7.96 -8.13 -19.22c-0.08,-0.23 -0.13,-0.38 -0.13,-0.47 0.06,-0.28 0.18,-0.51 0.36,-0.7 0.18,-0.18 0.4,-0.28 0.66,-0.28l5.04 0c0.59,0 1,0.3 1.23,0.89l4.7 12.02 4.83 -12.02c0.28,-0.59 0.71,-0.89 1.27,-0.89l5 0c0.25,0 0.47,0.09 0.66,0.28 0.18,0.18 0.28,0.39 0.28,0.61 0,0.2 -0.03,0.38 -0.08,0.55l-11.98 27.73c-0.28,0.59 -0.72,0.89 -1.31,0.89l-4.91 0z"/>
  <path class="fil0" d="M79.91 155.96c-0.28,0 -0.53,-0.11 -0.74,-0.32 -0.21,-0.21 -0.32,-0.46 -0.32,-0.74l0 -27.48c0,-0.31 0.1,-0.57 0.3,-0.78 0.2,-0.21 0.45,-0.32 0.76,-0.32l5.67 0c0.31,0 0.56,0.11 0.76,0.32 0.2,0.21 0.3,0.47 0.3,0.78l0 9.23 7.49 -9.48c0.31,-0.56 0.86,-0.85 1.65,-0.85l6.48 0c0.23,0 0.43,0.09 0.61,0.28 0.18,0.18 0.28,0.39 0.28,0.61 0,0.23 -0.06,0.4 -0.17,0.51l-9.86 12.78 10.67 14.06c0.11,0.11 0.17,0.28 0.17,0.51 0,0.23 -0.09,0.43 -0.28,0.61 -0.18,0.18 -0.4,0.28 -0.66,0.28l-6.65 0c-0.45,0 -0.82,-0.09 -1.1,-0.28 -0.28,-0.18 -0.48,-0.37 -0.59,-0.57l-8.04 -10.33 0 10.12c0,0.28 -0.1,0.53 -0.3,0.74 -0.2,0.21 -0.45,0.32 -0.76,0.32l-5.67 0z"/>
  <path class="fil0" d="M108.15 155.96c-0.31,0 -0.57,-0.1 -0.78,-0.3 -0.21,-0.2 -0.32,-0.45 -0.32,-0.76l0 -27.94c0,-0.31 0.11,-0.56 0.32,-0.76 0.21,-0.2 0.47,-0.3 0.78,-0.3l5.29 0c0.31,0 0.56,0.1 0.76,0.3 0.2,0.2 0.3,0.45 0.3,0.76l0 27.94c0,0.28 -0.1,0.53 -0.3,0.74 -0.2,0.21 -0.45,0.32 -0.76,0.32l-5.29 0z"/>
  <path class="fil0" d="M118.64 130.9c-0.31,0 -0.56,-0.11 -0.76,-0.32 -0.2,-0.21 -0.3,-0.47 -0.3,-0.78l0 -3.94c0,-0.31 0.11,-0.57 0.32,-0.78 0.21,-0.21 0.46,-0.32 0.74,-0.32l5.29 0c0.31,0 0.57,0.11 0.78,0.32 0.21,0.21 0.32,0.47 0.32,0.78l0 3.94c0,0.31 -0.11,0.57 -0.32,0.78 -0.21,0.21 -0.47,0.32 -0.78,0.32l-5.29 0zm0 25.06c-0.28,0 -0.53,-0.11 -0.74,-0.32 -0.21,-0.21 -0.32,-0.46 -0.32,-0.74l0 -19.9c0,-0.31 0.11,-0.56 0.32,-0.76 0.21,-0.2 0.46,-0.3 0.74,-0.3l5.29 0c0.31,0 0.57,0.1 0.78,0.3 0.21,0.2 0.32,0.45 0.32,0.76l0 19.9c0,0.31 -0.11,0.56 -0.32,0.76 -0.21,0.2 -0.47,0.3 -0.78,0.3l-5.29 0z"/>
  <path class="fil0" d="M129.18 155.96c-0.28,0 -0.53,-0.11 -0.74,-0.32 -0.21,-0.21 -0.32,-0.46 -0.32,-0.74l0 -19.9c0,-0.31 0.11,-0.56 0.32,-0.76 0.21,-0.2 0.46,-0.3 0.74,-0.3l5.21 0c0.31,0 0.56,0.1 0.76,0.3 0.2,0.2 0.3,0.45 0.3,0.76l0 1.61c0.76,-0.93 1.74,-1.68 2.94,-2.24 1.2,-0.56 2.58,-0.85 4.13,-0.85 1.61,0 3.04,0.37 4.3,1.1 1.26,0.73 2.24,1.82 2.96,3.26 0.72,1.44 1.08,3.18 1.08,5.21l0 11.81c0,0.28 -0.1,0.53 -0.3,0.74 -0.2,0.21 -0.45,0.32 -0.76,0.32l-5.63 0c-0.31,0 -0.57,-0.1 -0.78,-0.3 -0.21,-0.2 -0.32,-0.45 -0.32,-0.76l0 -11.56c0,-1.27 -0.3,-2.24 -0.91,-2.92 -0.61,-0.68 -1.49,-1.02 -2.65,-1.02 -1.13,0 -2.02,0.35 -2.67,1.04 -0.65,0.69 -0.97,1.66 -0.97,2.9l0 11.56c0,0.28 -0.1,0.53 -0.3,0.74 -0.2,0.21 -0.45,0.32 -0.76,0.32l-5.63 0z"/>
  <path class="fil1" d="M114.18 42.57c4.01,0 7.3,3.28 7.3,7.3 0,1.07 -0.23,2.09 -0.65,3.01 -0.25,0.55 -0.57,1.07 -0.95,1.54 -8.84,13.77 -24.28,22.9 -41.86,22.9 -17.62,0 -33.1,-9.17 -41.92,-23 -0.32,-0.41 -0.59,-0.85 -0.82,-1.32 -0.45,-0.95 -0.71,-2.01 -0.71,-3.13 0,-4.01 3.28,-7.3 7.3,-7.3 2.34,0 4.43,1.11 5.76,2.83 0.32,0.42 0.6,0.87 0.83,1.35 6.27,9.67 17.17,16.07 29.55,16.07 12.43,0 23.35,-6.44 29.61,-16.16 0.2,-0.41 0.45,-0.81 0.72,-1.17 1.34,-1.77 3.45,-2.92 5.83,-2.92zm4.84 57.75c7.47,0 13.74,-5.15 15.45,-12.09l0.37 -2.08 9.64 -54.66 2.99 -16.95 1.26 0 0.02 0c4,0 7.27,-3.27 7.27,-7.27 0,-3.57 -2.6,-6.55 -6,-7.16 -0.41,-0.07 -0.83,-0.11 -1.26,-0.11l-141.48 0c-0.42,0 -0.83,0.04 -1.23,0.11 -3.41,0.59 -6.03,3.58 -6.03,7.16 0,4 3.27,7.27 7.27,7.27l0.02 0 1.29 0 2.99 16.95 9.77 55.4 0.11 0.61c1.44,7.31 7.88,12.82 15.61,12.82l81.98 0zm-21.4 -59.05c5.16,0 9.34,-4.18 9.34,-9.34 0,-5.16 -4.18,-9.34 -9.34,-9.34 -5.16,0 -9.34,4.18 -9.34,9.34 0,5.16 4.18,9.34 9.34,9.34zm-39.25 0c5.16,0 9.34,-4.18 9.34,-9.34 0,-5.16 -4.18,-9.34 -9.34,-9.34 -5.16,0 -9.34,4.18 -9.34,9.34 0,5.16 4.18,9.34 9.34,9.34z"/>
 </g>
</svg>
